<?xml version="1.0" encoding="iso-8859-1"?>
<!-- Generator: Adobe Illustrator 29.4.0, SVG Export Plug-In . SVG Version: 9.03 Build 0)  -->
<svg version="1.1" baseProfile="basic" id="Layer_1"
	 xmlns="http://www.w3.org/2000/svg" xmlns:xlink="http://www.w3.org/1999/xlink" x="0px" y="0px" viewBox="0 0 50 50"
	 xml:space="preserve">
<path d="M22.462,11.035l2.88,7.097c1.204,2.968,3.558,5.322,6.526,6.526l7.097,2.88c1.312,0.533,1.312,2.391,0,2.923l-7.097,2.88
	c-2.968,1.204-5.322,3.558-6.526,6.526l-2.88,7.097c-0.533,1.312-2.391,1.312-2.923,0l-2.88-7.097
	c-1.204-2.968-3.558-5.322-6.526-6.526l-7.097-2.88c-1.312-0.533-1.312-2.391,0-2.923l7.097-2.88
	c2.968-1.204,5.322-3.558,6.526-6.526l2.88-7.097C20.071,9.723,21.929,9.723,22.462,11.035z"/>
<path d="M39.945,2.701l0.842,2.428c0.664,1.915,2.169,3.42,4.084,4.084l2.428,0.842c0.896,0.311,0.896,1.578,0,1.889l-2.428,0.842
	c-1.915,0.664-3.42,2.169-4.084,4.084l-0.842,2.428c-0.311,0.896-1.578,0.896-1.889,0l-0.842-2.428
	c-0.664-1.915-2.169-3.42-4.084-4.084l-2.428-0.842c-0.896-0.311-0.896-1.578,0-1.889l2.428-0.842
	c1.915-0.664,3.42-2.169,4.084-4.084l0.842-2.428C38.366,1.805,39.634,1.805,39.945,2.701z"/>
</svg>