<svg xml:space="preserve" viewBox="472.14791999999994 411.69599999999997 140.4 257.03999999999996" version="1.1" xmlns:xlink="http://www.w3.org/1999/xlink" xmlns="http://www.w3.org/2000/svg" style="max-height: 500px" width="140.4" height="257.03999999999996">
<desc>Created with Fabric.js 5.2.4</desc>
<defs>
</defs>
<g id="aa5474dd-c628-4679-b185-7053ffaa6c94" transform="matrix(1 0 0 1 540 540)">
<rect height="1080" width="1080" ry="0" rx="0" y="-540" x="-540" style="stroke: none; stroke-width: 1; stroke-dasharray: none; stroke-linecap: butt; stroke-dashoffset: 0; stroke-linejoin: miter; stroke-miterlimit: 4; fill: rgb(255,255,255); fill-rule: nonzero; opacity: 1; visibility: hidden;"/>
</g>
<g id="f3facbd1-efb9-455e-a596-0b3a985671dc" transform="matrix(1 0 0 1 540 540)">
</g>
<g transform="matrix(1 0 0 1 528.41 624.9)">
<radialGradient fy="285.6867" fx="122.858" r="60.4647" cy="285.6867" cx="122.858" gradientTransform="matrix(1 0 0 1 -151.38 -313)" gradientUnits="userSpaceOnUse" id="SVGID_SVGID_1__3">
<stop style="stop-color:rgb(77,77,77);stop-opacity: 1" offset="0%"/>
<stop style="stop-color:rgb(48,48,48);stop-opacity: 1" offset="100%"/>
</radialGradient>
<ellipse ry="34.971" rx="46.556" cy="0" cx="0" style="stroke: none; stroke-width: 1; stroke-dasharray: none; stroke-linecap: butt; stroke-dashoffset: 0; stroke-linejoin: miter; stroke-miterlimit: 4; fill: url(#SVGID_SVGID_1__3); fill-rule: nonzero; opacity: 1;"/>
</g>
<g transform="matrix(1 0 0 1 532.18 593.58)">
<linearGradient y2="287.6038" x2="155.1553" y1="276.5346" x1="155.1553" gradientTransform="matrix(1 0 0 1 0 0)" gradientUnits="userSpaceOnUse" id="SVGID_SVGID_00000103982460139894095830000009682357853716803229__4">
<stop style="stop-color:rgb(77,77,77);stop-opacity: 1" offset="0%"/>
<stop style="stop-color:rgb(48,48,48);stop-opacity: 1" offset="100%"/>
</linearGradient>
<path stroke-linecap="round" d="M 151.385 278.029 C 144.189 278.029 137.37599999999998 279.257 131.293 281.44599999999997 C 132.061 281.99999999999994 133.017 282.40099999999995 134.088 282.563 C 134.852 282.678 146.57999999999998 284.421 159.456 285.08299999999997 C 166.12699999999998 285.426 173.09799999999998 285.47299999999996 179.017 284.85799999999995 C 171.288 280.568 161.733 278.029 151.385 278.029 z" transform="translate(-155.16, -281.68)" style="stroke: none; stroke-width: 1; stroke-dasharray: none; stroke-linecap: butt; stroke-dashoffset: 0; stroke-linejoin: miter; stroke-miterlimit: 4; fill: url(#SVGID_SVGID_00000103982460139894095830000009682357853716803229__4); fill-rule: nonzero; opacity: 0.45;"/>
</g>
<g transform="matrix(1 0 0 1 504.73 624.9)">
<linearGradient y2="345.6404" x2="127.6983" y1="288.3959" x1="127.6983" gradientTransform="matrix(1 0 0 1 0 0)" gradientUnits="userSpaceOnUse" id="SVGID_SVGID_00000077292170700004091520000013176322680072811392__5">
<stop style="stop-color:rgb(77,77,77);stop-opacity: 1" offset="0%"/>
<stop style="stop-color:rgb(48,48,48);stop-opacity: 0" offset="100%"/>
</linearGradient>
<path stroke-linecap="round" d="M 126.368 313 C 126.368 301.829 132.96099999999998 292.03 142.877 286.485 C 142.71800000000002 286.483 142.561 286.474 142.401 286.474 C 125.89800000000001 286.474 112.52000000000001 298.34999999999997 112.52000000000001 313 C 112.52000000000001 327.65 125.89800000000001 339.526 142.401 339.526 C 142.561 339.526 142.71800000000002 339.51800000000003 142.877 339.515 C 132.962 333.97 126.368 324.171 126.368 313 z" transform="translate(-127.7, -313)" style="stroke: none; stroke-width: 1; stroke-dasharray: none; stroke-linecap: butt; stroke-dashoffset: 0; stroke-linejoin: miter; stroke-miterlimit: 4; fill: url(#SVGID_SVGID_00000077292170700004091520000013176322680072811392__5); fill-rule: nonzero; opacity: 0.75;"/>
</g>
<g transform="matrix(1 0 0 1 554.71 505.03)">
<linearGradient y2="286.355" x2="177.6796" y1="152.6098" x1="177.6796" gradientTransform="matrix(1 0 0 1 0 0)" gradientUnits="userSpaceOnUse" id="SVGID_SVGID_00000137119803247069944530000000550590149628296639__6">
<stop style="stop-color:rgb(34,215,245);stop-opacity: 1" offset="0%"/>
<stop style="stop-color:rgb(2,114,189);stop-opacity: 1" offset="100%"/>
</linearGradient>
<path stroke-linecap="round" d="M 151.122 278.029 C 151.122 278.029 151.38000000000002 233.9 166.09 202.416 C 180.8 170.932 202.735 148.48 202.735 148.48 C 202.735 148.48 176.412 172.738 165.05800000000002 200.093 C 153.70300000000003 227.44799999999998 149.574 267.964 149.574 267.964 C 149.574 267.964 136.67100000000002 256.351 134.864 240.609 C 134.864 240.609 140.28300000000002 248.609 145.445 252.222 C 145.445 252.222 136.155 239.577 134.864 234.93200000000002 C 133.574 230.287 134.09 221.77100000000002 138.477 211.448 L 149.574 220.996 C 149.574 220.996 141.316 212.996 139.51000000000002 206.286 L 142.865 197.77 C 142.865 197.77 147.252 210.931 152.929 217.899 C 152.929 217.899 146.219 201.125 146.219 192.351 C 146.219 192.351 158.606 172.48 167.38 164.222 L 165.832 177.125 C 165.832 177.125 169.703 165.512 174.864 160.093 C 174.864 160.093 200.412 143.83499999999998 207.122 130.932 C 213.83200000000002 118.02899999999998 209.44500000000002 108.22199999999998 209.44500000000002 108.22199999999998 C 209.44500000000002 108.22199999999998 224.15500000000003 120.86699999999998 220.54200000000003 151.57699999999997 C 216.92900000000003 182.28699999999998 208.92900000000003 194.93199999999996 208.92900000000003 194.93199999999996 L 187.25200000000004 203.44799999999995 L 205.31600000000003 200.86699999999996 C 205.31600000000003 200.86699999999996 196.80000000000004 220.22199999999995 188.28400000000002 232.60899999999995 L 164.8 247.32 L 188.542 238.804 C 188.542 238.804 173.058 254.804 169.445 258.675 C 165.832 262.546 154.477 270.03000000000003 154.477 270.03000000000003 L 153.187 278.03000000000003 L 151.122 278.03000000000003 z" transform="translate(-177.68, -193.13)" style="stroke: none; stroke-width: 1; stroke-dasharray: none; stroke-linecap: butt; stroke-dashoffset: 0; stroke-linejoin: miter; stroke-miterlimit: 4; fill: url(#SVGID_SVGID_00000137119803247069944530000000550590149628296639__6); fill-rule: nonzero; opacity: 1;"/>
</g>
<g transform="matrix(1 0 0 1 554.54 535.65)">
<linearGradient y2="204.2413" x2="223.6609" y1="227.9832" x1="170.2417" gradientTransform="matrix(1 0 0 1 0 0)" gradientUnits="userSpaceOnUse" id="SVGID_SVGID_00000017517967629271359570000012577960087569145517__7">
<stop style="stop-color:rgb(34,215,245);stop-opacity: 0" offset="0%"/>
<stop style="stop-color:rgb(2,114,189);stop-opacity: 1" offset="100%"/>
</linearGradient>
<path stroke-linecap="round" d="M 157.872 226.202 C 157.312 228.42 156.799 230.635 156.329 232.831 C 169.967 231.708 185.829 227.31099999999998 192.97 225.161 C 195.019 221.657 196.968 218.025 198.689 214.669 C 183.211 220.96 161.148 225.54 157.872 226.202 z" transform="translate(-177.51, -223.75)" style="stroke: none; stroke-width: 1; stroke-dasharray: none; stroke-linecap: butt; stroke-dashoffset: 0; stroke-linejoin: miter; stroke-miterlimit: 4; fill: url(#SVGID_SVGID_00000017517967629271359570000012577960087569145517__7); fill-rule: nonzero; opacity: 1;"/>
</g>
<g transform="matrix(1 0 0 1 547.8 553.6)">
<linearGradient y2="235.2076" x2="185.7287" y1="247.5947" x1="156.8255" gradientTransform="matrix(1 0 0 1 0 0)" gradientUnits="userSpaceOnUse" id="SVGID_SVGID_00000090979084106200708760000011379606012901719964__8">
<stop style="stop-color:rgb(34,215,245);stop-opacity: 0" offset="0%"/>
<stop style="stop-color:rgb(2,114,189);stop-opacity: 1" offset="100%"/>
</linearGradient>
<path stroke-linecap="round" d="M 153.251 250.792 C 154.903 250.38400000000001 159.85 249.11 164.8 247.32 L 188.28400000000002 232.60999999999999 C 188.28400000000002 232.60999999999999 162.70200000000003 242.647 153.98200000000003 245.671 C 153.714 247.417 153.471 249.127 153.251 250.792 z" transform="translate(-170.77, -241.7)" style="stroke: none; stroke-width: 1; stroke-dasharray: none; stroke-linecap: butt; stroke-dashoffset: 0; stroke-linejoin: miter; stroke-miterlimit: 4; fill: url(#SVGID_SVGID_00000090979084106200708760000011379606012901719964__8); fill-rule: nonzero; opacity: 1;"/>
</g>
<g transform="matrix(1 0 0 1 519.91 566.19)">
<linearGradient y2="241.5244" x2="133.9531" y1="265.6535" x1="151.8887" gradientTransform="matrix(1 0 0 1 0 0)" gradientUnits="userSpaceOnUse" id="SVGID_SVGID_00000067234114265378196610000011285982496481407401__9">
<stop style="stop-color:rgb(34,215,245);stop-opacity: 0" offset="0%"/>
<stop style="stop-color:rgb(2,114,189);stop-opacity: 1" offset="100%"/>
</linearGradient>
<path stroke-linecap="round" d="M 134.864 240.61 C 136.671 256.35200000000003 149.574 267.96500000000003 149.574 267.96500000000003 C 149.574 267.96500000000003 149.98100000000002 263.973 150.89000000000001 257.65200000000004 C 150.13600000000002 256.86800000000005 148.21200000000002 254.89200000000005 145.44500000000002 252.22300000000004 C 140.284 248.61 134.864 240.61 134.864 240.61 z" transform="translate(-142.88, -254.29)" style="stroke: none; stroke-width: 1; stroke-dasharray: none; stroke-linecap: butt; stroke-dashoffset: 0; stroke-linejoin: miter; stroke-miterlimit: 4; fill: url(#SVGID_SVGID_00000067234114265378196610000011285982496481407401__9); fill-rule: nonzero; opacity: 1;"/>
</g>
<g transform="matrix(1 0 0 1 540.93 572.97)">
<linearGradient y2="251.5172" x2="177.4886" y1="264.0334" x1="155.166" gradientTransform="matrix(1 0 0 1 0 0)" gradientUnits="userSpaceOnUse" id="SVGID_SVGID_00000126293342394190864820000010953058402218951810__10">
<stop style="stop-color:rgb(34,215,245);stop-opacity: 0" offset="0%"/>
<stop style="stop-color:rgb(2,114,189);stop-opacity: 1" offset="100%"/>
</linearGradient>
<path stroke-linecap="round" d="M 169.445 258.674 C 170.709 257.32 173.428 254.47899999999998 176.427 251.35999999999999 C 167.16899999999998 255.36899999999997 154.632 259.33099999999996 152.192 260.091 C 151.793 264.252 151.542 267.887 151.38500000000002 270.778 L 154.47700000000003 270.029 C 154.477 270.029 165.832 262.545 169.445 258.674 z" transform="translate(-163.91, -261.07)" style="stroke: none; stroke-width: 1; stroke-dasharray: none; stroke-linecap: butt; stroke-dashoffset: 0; stroke-linejoin: miter; stroke-miterlimit: 4; fill: url(#SVGID_SVGID_00000126293342394190864820000010953058402218951810__10); fill-rule: nonzero; opacity: 1;"/>
</g>
<g transform="matrix(1 0 0 1 522.64 539.37)">
<linearGradient y2="205.1433" x2="132.3756" y1="241.0143" x1="154.5692" gradientTransform="matrix(1 0 0 1 0 0)" gradientUnits="userSpaceOnUse" id="SVGID_SVGID_00000064321729994903649400000008700956961634636467__11">
<stop style="stop-color:rgb(34,215,245);stop-opacity: 0" offset="0%"/>
<stop style="stop-color:rgb(2,114,189);stop-opacity: 1" offset="100%"/>
</linearGradient>
<path stroke-linecap="round" d="M 149.574 220.997 C 149.34900000000002 220.81900000000002 149.091 220.596 148.81300000000002 220.34300000000002 L 138.477 211.449 C 137.279 214.268 136.37800000000001 216.94600000000003 135.715 219.454 C 140.398 226.372 151.374 236.329 154.103 238.761 C 154.895 234.756 155.80100000000002 230.554 156.83 226.29999999999998 C 155.717 225.528 152.156 223.042 149.574 220.997 z M 135.059 222.23 C 134.733 223.833 134.512 225.34699999999998 134.384 226.76 C 140.369 234.237 150.826 241.809 153.20399999999998 243.487 C 153.30499999999998 242.93699999999998 153.40699999999998 242.384 153.51299999999998 241.82399999999998 C 145.056 235.549 138.314 226.845 135.059 222.23 z" transform="translate(-145.61, -227.47)" style="stroke: none; stroke-width: 1; stroke-dasharray: none; stroke-linecap: butt; stroke-dashoffset: 0; stroke-linejoin: miter; stroke-miterlimit: 4; fill: url(#SVGID_SVGID_00000064321729994903649400000008700956961634636467__11); fill-rule: nonzero; opacity: 1;"/>
</g>
<g transform="matrix(1 0 0 1 537.16 502.17)">
<linearGradient y2="158.3249" x2="157.2324" y1="206.5831" x1="165.4905" gradientTransform="matrix(1 0 0 1 0 0)" gradientUnits="userSpaceOnUse" id="SVGID_SVGID_00000011018732416096484820000017826976442428362911__12">
<stop style="stop-color:rgb(34,215,245);stop-opacity: 0" offset="0%"/>
<stop style="stop-color:rgb(2,114,189);stop-opacity: 1" offset="100%"/>
</linearGradient>
<path stroke-linecap="round" d="M 165.173 199.827 C 164.733 192.808 165.832 177.126 165.832 177.126 L 167.38 164.223 C 162.774 168.55800000000002 157.17499999999998 176.091 152.892 182.27200000000002 C 153.444 195.61300000000003 158.238 212.216 159.474 216.30300000000003 C 161.101 210.67600000000002 162.95499999999998 205.15900000000002 165.057 200.09400000000002 C 165.095 200.005 165.136 199.916 165.173 199.827 z" transform="translate(-160.14, -190.26)" style="stroke: none; stroke-width: 1; stroke-dasharray: none; stroke-linecap: butt; stroke-dashoffset: 0; stroke-linejoin: miter; stroke-miterlimit: 4; fill: url(#SVGID_SVGID_00000011018732416096484820000017826976442428362911__12); fill-rule: nonzero; opacity: 1;"/>
</g>
<g transform="matrix(1 0 0 1 563.84 512.13)">
<linearGradient y2="189.4384" x2="213.8151" y1="202.7287" x1="173.0408" gradientTransform="matrix(1 0 0 1 0 0)" gradientUnits="userSpaceOnUse" id="SVGID_SVGID_00000116226506310988863520000007822163077895949188__13">
<stop style="stop-color:rgb(34,215,245);stop-opacity: 0" offset="0%"/>
<stop style="stop-color:rgb(2,114,189);stop-opacity: 1" offset="100%"/>
</linearGradient>
<path stroke-linecap="round" d="M 166.09 202.416 C 165.613 203.43699999999998 165.15200000000002 204.472 164.704 205.518 C 170.774 205.508 187.251 203.448 187.251 203.448 L 208.928 194.93200000000002 C 197.474 197.223 173.023 198.80100000000002 167.671 199.127 C 167.137 200.213 166.608 201.307 166.09 202.416 z" transform="translate(-186.82, -200.23)" style="stroke: none; stroke-width: 1; stroke-dasharray: none; stroke-linecap: butt; stroke-dashoffset: 0; stroke-linejoin: miter; stroke-miterlimit: 4; fill: url(#SVGID_SVGID_00000116226506310988863520000007822163077895949188__13); fill-rule: nonzero; opacity: 1;"/>
</g>
<g transform="matrix(1 0 0 1 571.16 446.99)">
<linearGradient y2="113.3838" x2="203.8736" y1="159.8354" x1="188.9059" gradientTransform="matrix(1 0 0 1 0 0)" gradientUnits="userSpaceOnUse" id="SVGID_SVGID_00000062879441268475201190000005633358886634740659__14">
<stop style="stop-color:rgb(34,215,245);stop-opacity: 0" offset="0%"/>
<stop style="stop-color:rgb(2,114,189);stop-opacity: 1" offset="100%"/>
</linearGradient>
<path stroke-linecap="round" d="M 201.766 149.4 C 202.106 149.066 202.432 148.755 202.73499999999999 148.481 C 202.73499999999999 148.481 221.31599999999997 127.449 209.445 108.22299999999998 C 209.445 108.22299999999998 213.832 118.02899999999998 207.12199999999999 130.933 C 200.41199999999998 143.83599999999998 174.86399999999998 160.094 174.86399999999998 160.094 L 189.93699999999998 161.947 C 195.349 155.701 199.869 151.224 201.766 149.4 z" transform="translate(-194.14, -135.08)" style="stroke: none; stroke-width: 1; stroke-dasharray: none; stroke-linecap: butt; stroke-dashoffset: 0; stroke-linejoin: miter; stroke-miterlimit: 4; fill: url(#SVGID_SVGID_00000062879441268475201190000005633358886634740659__14); fill-rule: nonzero; opacity: 1;"/>
</g>
<g transform="matrix(1 0 0 1 583.37 479.09)">
<linearGradient y2="160.0358" x2="227.0682" y1="174.6165" x1="195.4553" gradientTransform="matrix(1 0 0 1 0 0)" gradientUnits="userSpaceOnUse" id="SVGID_SVGID_00000096768279238271021820000005819136502980053157__15">
<stop style="stop-color:rgb(34,215,245);stop-opacity: 0" offset="0%"/>
<stop style="stop-color:rgb(2,114,189);stop-opacity: 1" offset="100%"/>
</linearGradient>
<path stroke-linecap="round" d="M 218.977 162.416 C 209.857 165.814 193.703 171.965 193.703 171.965 L 217.983 167.687 C 218.325 166.012 218.658 164.261 218.977 162.416 z" transform="translate(-206.34, -167.19)" style="stroke: none; stroke-width: 1; stroke-dasharray: none; stroke-linecap: butt; stroke-dashoffset: 0; stroke-linejoin: miter; stroke-miterlimit: 4; fill: url(#SVGID_SVGID_00000096768279238271021820000005819136502980053157__15); fill-rule: nonzero; opacity: 1;"/>
</g>
<g transform="matrix(1 0 0 1 528.61 590.43)">
<linearGradient y2="291.959" x2="165.6011" y1="267.0869" x1="140.7289" gradientTransform="matrix(1 0 0 1 0 0)" gradientUnits="userSpaceOnUse" id="SVGID_SVGID_00000011026988958042546360000007051580980671967123__16">
<stop style="stop-color:rgb(77,77,77);stop-opacity: 1" offset="13.900000000000002%"/>
<stop style="stop-color:rgb(48,48,48);stop-opacity: 1" offset="81.36%"/>
</linearGradient>
<path stroke-linecap="round" d="M 153.312 283.539 C 143.065 283.539 133.73200000000003 282.399 133.12400000000002 282.323 C 130.776 282.031 129.11 279.89 129.40200000000002 277.541 C 129.69400000000002 275.193 131.83800000000002 273.525 134.18400000000003 273.818 C 134.40400000000002 273.846 156.30800000000002 276.518 168.51200000000003 273.62899999999996 C 170.81700000000004 273.08299999999997 173.12400000000002 274.50899999999996 173.66900000000004 276.813 C 174.21400000000003 279.116 172.78800000000004 281.424 170.48500000000004 281.96999999999997 C 165.464 283.158 159.234 283.539 153.312 283.539 z" transform="translate(-151.58, -278.53)" style="stroke: none; stroke-width: 1; stroke-dasharray: none; stroke-linecap: butt; stroke-dashoffset: 0; stroke-linejoin: miter; stroke-miterlimit: 4; fill: url(#SVGID_SVGID_00000011026988958042546360000007051580980671967123__16); fill-rule: nonzero; opacity: 1;"/>
</g>
</svg>