<?xml version="1.0" encoding="UTF-8" standalone="no"?>
<svg
   width="111.89833pt"
   height="133.82164pt"
   viewBox="0 0 111.89833 133.82164"
   version="1.1"
   id="svg1"
   sodipodi:docname="Rifat_signature.pdf"
   xmlns:inkscape="http://www.inkscape.org/namespaces/inkscape"
   xmlns:sodipodi="http://sodipodi.sourceforge.net/DTD/sodipodi-0.dtd"
   xmlns="http://www.w3.org/2000/svg"
   xmlns:svg="http://www.w3.org/2000/svg">
  <sodipodi:namedview
     id="namedview1"
     pagecolor="#ffffff"
     bordercolor="#000000"
     borderopacity="0.25"
     inkscape:showpageshadow="2"
     inkscape:pageopacity="0.0"
     inkscape:pagecheckerboard="0"
     inkscape:deskcolor="#d1d1d1"
     inkscape:document-units="pt"
     showgrid="false">
    <inkscape:page
       x="6.3527471e-22"
       y="0"
       width="111.89833"
       height="133.82164"
       id="page2"
       margin="0"
       bleed="0" />
  </sodipodi:namedview>
  <defs
     id="defs1">
    <inkscape:path-effect
       effect="powerclip"
       message=""
       id="path-effect11"
       is_visible="true"
       lpeversion="1"
       inverse="true"
       flatten="false"
       hide_clip="false" />
    <inkscape:path-effect
       effect="bspline"
       id="path-effect10"
       is_visible="true"
       lpeversion="1.3"
       weight="33.333333"
       steps="2"
       helper_size="0"
       apply_no_weight="true"
       apply_with_weight="true"
       only_selected="false"
       uniform="false" />
    <inkscape:path-effect
       effect="bspline"
       id="path-effect7"
       is_visible="true"
       lpeversion="1.3"
       weight="33.333333"
       steps="2"
       helper_size="0"
       apply_no_weight="true"
       apply_with_weight="true"
       only_selected="false"
       uniform="false" />
    <inkscape:path-effect
       effect="bspline"
       id="path-effect6"
       is_visible="true"
       lpeversion="1.3"
       weight="33.333333"
       steps="2"
       helper_size="0"
       apply_no_weight="true"
       apply_with_weight="true"
       only_selected="false"
       uniform="false" />
    <clipPath
       clipPathUnits="userSpaceOnUse"
       id="clipPath11">
      <path
         style="display:none;fill:#ffffff;fill-opacity:1;stroke-width:0.566929"
         d="m -115.26561,64.577153 c 0.006,-0.02246 0.0176,-0.06737 0.0362,-0.119138 0.0186,-0.05177 0.044,-0.110359 0.0733,-0.157235 0.0293,-0.04688 0.0625,-0.08203 0.0967,-0.10254 0.0342,-0.02051 0.0693,-0.02636 0.10058,-0.02049 0.0313,0.0059 0.0586,0.02343 0.081,0.04392 0.0224,0.02049 0.04,0.04398 0.0561,0.0669 0.0161,0.02292 0.0308,0.0454 0.0425,0.06449 0.0118,0.01909 0.0205,0.03459 0.0288,0.05125 0.008,0.01666 0.0161,0.03416 0.0239,0.05031 0.008,0.01616 0.0156,0.03072 0.0219,0.04297 0.006,0.01224 0.0112,0.02203 -0.01,0.03126 -0.021,0.0092 -0.0678,0.018 -0.13281,0.02973 -0.065,0.01172 -0.14797,0.02637 -0.20707,0.03516 -0.0591,0.0088 -0.0942,0.01172 -0.12644,0.01172 -0.0322,10e-7 -0.0615,-0.0029 -0.0762,-0.0044 -0.0147,-0.0015 -0.0146,-0.0014 -0.009,-0.0239 z"
         id="path11"
         inkscape:original-d="m -115.27148,64.599609 c 0.0117,-0.04492 0.0234,-0.08984 0.0352,-0.134765 0.0254,-0.0586 0.0508,-0.117188 0.0762,-0.175782 0.0332,-0.03516 0.0664,-0.07031 0.0996,-0.105468 0.0352,-0.0058 0.0703,-0.01172 0.10546,-0.01758 0.0274,0.01758 0.0547,0.03515 0.082,0.05273 0.0175,0.02344 0.0352,0.04687 0.0527,0.07031 0.0146,0.02246 0.0293,0.04493 0.044,0.06738 0.009,0.01562 0.0175,0.03125 0.0264,0.04687 0.008,0.01758 0.0156,0.03515 0.0234,0.05273 0.008,0.01465 0.0156,0.0293 0.0234,0.04394 0.005,0.0098 0.01,0.01953 0.0146,0.0293 -0.0469,0.0088 -0.0937,0.01758 -0.14063,0.02637 -0.083,0.01465 -0.16601,0.02929 -0.24902,0.04394 -0.0352,0.0029 -0.0703,0.0058 -0.10546,0.0088 -0.0293,-0.0029 -0.0586,-0.0058 -0.0879,-0.0088 z"
         inkscape:path-effect="#path-effect10" />
      <path
         id="lpe_path-effect11"
         style="fill:#ffffff;fill-opacity:1;stroke-width:0.566929"
         class="powerclip"
         d="m -143.17177,6.1360486 h 75.967877 V 98.335905 h -75.967877 z m 27.90029,58.4635604 -5e-5,-2.5e-5 c 0.0293,0.003 0.0586,0.0059 0.0879,0.0088 0.0352,-0.003 0.0703,-0.0059 0.10546,-0.0088 0.083,-0.01465 0.16602,-0.02929 0.24902,-0.04394 0.0469,-0.0088 0.0937,-0.01757 0.14063,-0.02637 -0.005,-0.0098 -0.01,-0.0195 -0.0146,-0.0293 -0.008,-0.01464 -0.0154,-0.02929 -0.0234,-0.04394 -0.008,-0.01758 -0.0154,-0.03515 -0.0234,-0.05273 -0.009,-0.01562 -0.0174,-0.03125 -0.0264,-0.04687 -0.0147,-0.02245 -0.0294,-0.04492 -0.044,-0.06738 -0.0175,-0.02344 -0.0352,-0.04687 -0.0527,-0.07031 -0.0273,-0.01758 -0.0546,-0.03515 -0.082,-0.05273 -0.0352,0.0059 -0.0703,0.01178 -0.10546,0.01758 -0.0332,0.03516 -0.0664,0.07031 -0.0996,0.105468 -0.0254,0.05859 -0.0508,0.117182 -0.0762,0.175782 -0.0118,0.04493 -0.0235,0.08984 -0.0352,0.134765 z" />
    </clipPath>
  </defs>
  <g
     id="g12"
     inkscape:export-filename="Rifat_signature_vectorized_transparent2.png"
     inkscape:export-xdpi="96"
     inkscape:export-ydpi="96"
     transform="translate(138.17175,-11.136048)">
    <path
       id="path3"
       style="fill:#000000;fill-opacity:1;stroke-width:0.566929"
       d="m -92.907346,11.136054 c -1.046843,0 -2.093255,-0.0012 -2.961914,0.03223 -0.868659,0.03341 -1.560074,0.101337 -2.373047,0.19043 -0.812973,0.08909 -1.747779,0.200308 -2.816893,0.445312 -1.06912,0.245004 -2.27157,0.62359 -3.44092,1.035645 -1.16935,0.412055 -2.30498,0.857645 -3.44092,1.347657 -1.13593,0.490011 -2.27277,1.023735 -3.35302,1.580565 -1.08026,0.556831 -2.10434,1.13649 -3.12891,1.804688 -1.02457,0.668196 -2.04957,1.42478 -3.00733,2.059569 -0.95775,0.634789 -1.84889,1.147046 -2.80664,1.792969 -0.95774,0.645923 -1.98106,1.425345 -2.80517,2.126953 -0.82411,0.701608 -1.44822,1.326356 -2.08301,1.927734 -0.63479,0.601379 -1.28151,1.180737 -1.94971,1.82666 -0.66819,0.645924 -1.35858,1.357399 -1.95996,1.992188 -0.60138,0.634789 -1.11309,1.192756 -1.66992,1.816406 -0.55683,0.62365 -1.1585,1.313735 -1.71533,1.981935 -0.55683,0.668197 -1.06826,1.313998 -1.63623,2.071288 -0.56797,0.75729 -1.19221,1.626291 -1.69336,2.416992 -0.50115,0.790701 -0.87937,1.503565 -1.22461,2.216309 -0.34524,0.712744 -0.65794,1.425045 -0.8584,2.148925 -0.20046,0.723881 -0.28885,1.458737 -0.32226,2.182618 -0.0334,0.723881 -0.0106,1.4365 0.0117,2.071289 0.0223,0.634788 0.0433,1.192228 0.14356,1.637695 0.10023,0.445466 0.27853,0.778356 0.53467,0.956543 0.25614,0.178187 0.59027,0.201266 0.75732,0.212402 0.16705,0.01114 0.16783,0.01058 0.2959,-0.09521 0.12807,-0.105796 0.38402,-0.317476 0.55664,-0.618164 0.17262,-0.300688 0.26132,-0.690663 0.30029,-1.152832 0.039,-0.462169 0.0275,-0.99532 0.022,-1.541015 -0.006,-0.545695 -0.005,-1.102564 0.0176,-1.598145 0.0223,-0.495581 0.0659,-0.930314 0.12159,-1.381347 0.0557,-0.451034 0.12329,-0.919459 0.26806,-1.41504 0.14478,-0.49558 0.367,-1.018758 0.63428,-1.564453 0.26728,-0.545694 0.57966,-1.11309 0.93603,-1.669922 0.35638,-0.556831 0.75719,-1.102846 1.17481,-1.631835 0.41762,-0.52899 0.85118,-1.040704 1.38574,-1.669922 0.53456,-0.629219 1.17019,-1.376104 1.81055,-2.144532 0.64035,-0.768427 1.28648,-1.558344 1.96582,-2.282226 0.67933,-0.723882 1.39135,-1.381711 2.11523,-2.033203 0.72388,-0.651493 1.45845,-1.29675 2.17676,-1.948242 0.71831,-0.651493 1.42096,-1.308506 2.09473,-1.848633 0.67376,-0.540128 1.31963,-0.963734 1.87646,-1.353516 0.55683,-0.389782 1.02408,-0.746673 1.41944,-1.047363 0.39535,-0.30069 0.71883,-0.544845 1.04736,-0.767578 0.32853,-0.222734 0.66197,-0.422964 1.07959,-0.667969 0.41762,-0.245005 0.91829,-0.535446 1.3916,-0.830566 0.47331,-0.295121 0.91943,-0.594895 1.49853,-0.962403 0.57911,-0.367508 1.29208,-0.802609 1.91016,-1.164551 0.61809,-0.361941 1.14181,-0.651469 1.6875,-0.924316 0.5457,-0.272847 1.11307,-0.52814 1.72559,-0.767578 0.61251,-0.239438 1.26918,-0.463106 2.00976,-0.691406 0.74059,-0.228301 1.56538,-0.461932 2.28369,-0.695801 0.71832,-0.233869 1.33097,-0.466918 2.16065,-0.684082 0.829675,-0.217165 1.875283,-0.418597 2.74951,-0.580078 0.874228,-0.161482 1.576368,-0.283277 2.729004,-0.350098 1.152637,-0.06682 2.756976,-0.07795 4.048828,-0.02783 1.291852,0.05011 2.270802,0.160784 3.117188,0.322265 0.846386,0.16148 1.559556,0.372594 2.166504,0.550781 0.606948,0.178186 1.107841,0.323964 1.592285,0.496582 0.484444,0.172617 0.952879,0.373168 1.387207,0.590332 0.434329,0.217164 0.930338,0.36083 1.375488,0.584473 0.451909,0.227037 0.891947,0.493265 1.309571,0.766113 0.417624,0.272847 0.798654,0.593553 1.185058,0.906738 0.337876,0.273853 0.606021,0.55449 0.990235,0.84961 0.384213,0.295119 0.785614,0.640013 1.158691,1.001953 0.373077,0.36194 0.717666,0.740496 1.023926,1.11914 0.306259,0.378645 0.573272,0.757219 0.779297,1.091309 0.206024,0.33409 0.350932,0.6239 0.479004,0.98584 0.128071,0.361939 0.239905,0.796131 0.345703,1.258301 0.105798,0.462169 0.206232,0.952249 0.256347,1.514648 0.05012,0.562399 0.04952,1.19745 0.01611,1.798828 -0.03341,0.60138 -0.09957,1.169045 -0.210938,1.731446 -0.111366,0.5624 -0.266836,1.118968 -0.439453,1.620118 -0.172617,0.501148 -0.362595,0.947263 -0.657715,1.526367 -0.29512,0.579103 -0.696258,1.291181 -1.069336,1.948243 -0.373077,0.657061 -0.718514,1.259246 -1.125,1.921876 -0.406486,0.662629 -0.873185,1.385212 -1.324219,2.075684 -0.451033,0.690471 -0.88665,1.348891 -1.371093,2.017089 -0.484443,0.668197 -1.018468,1.346254 -1.558594,2.02002 -0.540126,0.673766 -1.085268,1.343033 -1.614258,2.01123 -0.52899,0.668197 -1.041905,1.335436 -1.582031,1.942383 -0.540126,0.606946 -1.107804,1.152932 -1.703613,1.715332 -0.59581,0.5624 -1.219987,1.142087 -1.888184,1.721192 -0.668197,0.579104 -1.379963,1.157044 -1.998047,1.686035 -0.618084,0.52899 -1.142396,1.008532 -1.671387,1.470703 -0.52899,0.46217 -1.062713,0.906895 -1.580566,1.302246 -0.517853,0.39535 -1.019087,0.741397 -1.458984,1.053223 -0.439898,0.311826 -0.818696,0.590527 -1.26416,0.874511 -0.445465,0.283983 -0.958438,0.573532 -1.41504,0.868653 -0.456602,0.29512 -0.856208,0.595222 -1.262695,0.856933 -0.406486,0.26171 -0.819883,0.484487 -1.204103,0.729492 -0.38421,0.245005 -0.74018,0.512299 -1.16894,0.812987 -0.42876,0.300689 -0.92973,0.634462 -1.39746,0.946289 -0.46774,0.311828 -0.9025,0.601954 -1.32569,0.88037 -0.42319,0.278416 -0.83394,0.545127 -1.23486,0.801269 -0.40092,0.256143 -0.79116,0.500891 -1.21436,0.751465 -0.42319,0.250575 -0.88022,0.507624 -1.32568,0.774904 -0.44547,0.26728 -0.87961,0.546 -1.39746,0.818846 -0.51785,0.27285 -1.1187,0.539289 -1.55859,0.739747 -0.4399,0.200459 -0.71948,0.333692 -0.89209,0.328125 -0.17262,-0.0056 -0.23903,-0.149883 -0.35596,-0.495118 -0.11694,-0.345233 -0.28354,-0.891044 -0.43945,-1.375488 -0.15592,-0.484444 -0.30053,-0.907169 -0.47315,-1.36377 -0.17262,-0.456601 -0.37405,-0.947282 -0.58008,-1.470703 -0.20602,-0.523421 -0.41746,-1.080235 -0.47314,-1.765136 -0.0557,-0.684902 0.0451,-1.497338 0.17871,-2.427247 0.13364,-0.929907 0.30111,-1.976275 0.48486,-3.101074 0.18376,-1.124799 0.38314,-2.327263 0.5669,-3.413086 0.18375,-1.085822 0.35118,-2.055923 0.59619,-3.303221 0.245,-1.247301 0.56826,-2.772216 0.84668,-4.047364 0.27841,-1.275146 0.51263,-2.300371 0.70752,-3.208008 0.19489,-0.907637 0.35065,-1.697505 0.44531,-2.421387 0.0947,-0.723882 0.12802,-1.381766 0.13916,-1.866211 0.0111,-0.484445 -2.6e-4,-0.795614 -0.0894,-1.051758 -0.0891,-0.256143 -0.25657,-0.4567 -0.45703,-0.5625 -0.20046,-0.105799 -0.43411,-0.116332 -0.64014,-0.04395 -0.20603,0.07239 -0.38374,0.226946 -0.52295,0.533203 -0.13921,0.306255 -0.2393,0.763483 -0.38965,1.609862 -0.15034,0.846381 -0.35059,2.081959 -0.6123,3.43506 -0.26171,1.353099 -0.58497,2.823194 -0.84668,4.092773 -0.26171,1.269579 -0.46283,2.33963 -0.62988,3.241698 -0.16705,0.902069 -0.30083,1.637119 -0.45117,2.466797 -0.15035,0.829678 -0.31694,1.753122 -0.46729,2.616211 -0.15034,0.86309 -0.28443,1.665561 -0.40137,2.422852 -0.11693,0.757291 -0.21706,1.470192 -0.30615,2.10498 -0.0891,0.634789 -0.16667,1.191857 -0.24463,1.434082 -0.078,0.242225 -0.15524,0.169506 -0.23877,0.105469 -0.0835,-0.06404 -0.17324,-0.1201 -0.3208,-0.175781 -0.14756,-0.05568 -0.35354,-0.110737 -0.55957,-0.127442 -0.20603,-0.0167 -0.41242,0.0048 -0.65185,0.06885 -0.23944,0.06404 -0.51187,0.169865 -0.8042,0.336914 -0.29234,0.167049 -0.60459,0.396014 -0.90528,0.629883 -0.30069,0.233869 -0.59052,0.472186 -0.87451,0.706055 -0.28398,0.233869 -0.56123,0.463096 -0.84521,0.719238 -0.28399,0.256142 -0.57399,0.540141 -0.82178,0.812988 -0.24779,0.272848 -0.45359,0.533526 -0.66797,0.875977 -0.21438,0.34245 -0.43749,0.76627 -0.59619,1.161621 -0.1587,0.395351 -0.25354,0.762468 -0.33984,1.141113 -0.0863,0.378645 -0.16346,0.768472 -0.20801,1.149902 -0.0446,0.381431 -0.0567,0.75427 -0.0483,1.116211 0.008,0.361941 0.037,0.713265 0.10107,1.047364 0.064,0.334099 0.16446,0.651468 0.28418,0.924316 0.11972,0.272848 0.25892,0.501783 0.44824,0.713379 0.18933,0.211596 0.42882,0.405568 0.70166,0.541992 0.27285,0.136424 0.57866,0.215168 0.8877,0.268067 0.30904,0.0529 0.6204,0.07983 0.94336,0.09375 0.32296,0.01392 0.65732,0.01436 0.95801,0.0088 0.30069,-0.0056 0.56748,-0.01622 0.81152,-0.02783 0.24404,-0.01162 0.46491,-0.02363 0.55957,0.08057 0.0947,0.104198 0.0639,0.324045 0.009,0.654785 -0.0551,0.33074 -0.13457,0.771529 -0.22119,1.259766 -0.0866,0.488236 -0.18034,1.023285 -0.28272,1.598144 -0.10237,0.57486 -0.21274,1.189718 -0.35449,1.83545 -0.14174,0.645732 -0.31565,1.322644 -0.47314,2.015625 -0.1575,0.692981 -0.29807,1.402286 -0.45557,2.15039 -0.1575,0.748105 -0.33085,1.535234 -0.48047,2.20459 -0.14962,0.669356 -0.27665,1.220863 -0.42627,1.756348 -0.14962,0.535485 -0.3226,1.055148 -0.52734,1.614258 -0.20475,0.559109 -0.44053,1.157695 -0.61377,1.653808 -0.17325,0.496113 -0.28344,0.888922 -0.31494,1.227539 -0.0315,0.338617 0.015,0.622883 0.0937,0.890625 0.0787,0.267743 0.18967,0.520177 0.34717,0.685547 0.15749,0.16537 0.36177,0.243891 0.61376,0.275391 0.252,0.0315 0.55202,0.0154 0.82764,-0.14209 0.27562,-0.157493 0.52731,-0.456245 0.71631,-0.802735 0.189,-0.346489 0.31492,-0.740581 0.44092,-1.252441 0.12599,-0.51186 0.25229,-1.142484 0.39404,-1.709473 0.14175,-0.566988 0.29917,-1.069796 0.44092,-1.628906 0.14175,-0.55911 0.26694,-1.173968 0.40869,-1.835449 0.14175,-0.661481 0.29917,-1.370257 0.44092,-2.031738 0.14174,-0.661481 0.26878,-1.275425 0.36328,-1.826661 0.0945,-0.551235 0.15746,-1.040145 0.25195,-1.520507 0.0945,-0.480362 0.22759,-0.946851 0.32227,-1.432618 0.0947,-0.485767 0.18163,-0.969096 0.24463,-1.480957 0.063,-0.51186 0.1104,-1.046872 0.16552,-1.541015 0.0551,-0.494143 0.11782,-0.946685 0.16114,-1.328613 0.0433,-0.381929 0.0661,-0.693736 0.0996,-1.016602 0.0335,-0.322866 0.0446,-0.465653 0.10107,-0.689942 0.0267,-0.106284 0.13552,-0.291409 0.24175,-0.30084 0.28651,-0.02543 0.0941,-0.0011 0.24605,-0.01268 0.15196,-0.01159 0.19967,-0.02332 0.29882,-0.03959 0.12767,-0.02096 0.25377,-0.05054 0.38086,-0.07471 0.20925,-0.03979 0.41712,-0.08893 0.62842,-0.115726 0.20735,-0.02629 -0.1055,-0.01903 0.62549,-0.04394 0.43109,-0.01469 0.39448,-0.09543 0.45703,0.06884 0.0705,0.185192 0.0907,0.141754 0.2666,0.585937 0.17593,0.444184 0.41704,1.033645 0.68262,1.656739 0.26558,0.623094 0.55447,1.280008 0.90527,2.05957 0.35081,0.779562 0.76276,1.681372 1.14697,2.460937 0.38422,0.779566 0.7405,1.437356 1.11915,2.144532 0.37864,0.707176 0.78058,1.46364 1.30957,2.421386 0.52898,0.957747 1.18545,2.1158 1.72558,3.023438 0.54013,0.907638 0.96283,1.564507 1.41944,2.266113 0.4566,0.701607 0.94726,1.448455 1.52636,2.25586 0.57911,0.807404 1.24785,1.675551 1.83252,2.34375 0.58468,0.668198 1.08585,1.136576 1.625978,1.554199 0.540126,0.417623 1.118322,0.785041 1.803223,1.11914 0.684901,0.3341 1.475667,0.634492 2.383301,0.862793 0.907633,0.228302 1.932968,0.384633 2.901855,0.484864 0.968887,0.10023 1.881473,0.144436 2.649902,0.1333 0.768429,-0.01113 1.392547,-0.07789 2.055176,-0.194824 0.66263,-0.116934 1.364114,-0.284404 2.071289,-0.484863 0.707175,-0.200459 1.418895,-0.434382 2.137207,-0.70166 0.718312,-0.267279 1.443534,-0.567373 2.072754,-0.884766 0.62922,-0.317393 1.162866,-0.651421 1.803223,-1.063476 0.640356,-0.412056 1.386734,-0.903092 1.910156,-1.281739 0.523423,-0.378646 0.823747,-0.645309 1.057617,-0.940429 0.23387,-0.295121 0.400756,-0.617477 0.473145,-0.912598 0.07239,-0.295121 0.05043,-0.563323 -0.07764,-0.719238 -0.12807,-0.155915 -0.361731,-0.199509 -0.612305,-0.205078 -0.250573,-0.0056 -0.518169,0.02662 -0.791015,0.143554 -0.272847,0.116933 -0.551549,0.318076 -0.874512,0.574219 -0.322963,0.256143 -0.68949,0.568526 -1.157227,0.936035 -0.467736,0.367509 -1.036636,0.789727 -1.560058,1.129395 -0.523422,0.339668 -1.002346,0.595806 -1.570313,0.868652 -0.567967,0.272846 -1.224981,0.563014 -1.848632,0.769043 -0.623652,0.206029 -1.213291,0.327795 -1.753418,0.433594 -0.540127,0.105798 -1.030497,0.19597 -1.520508,0.273926 -0.490012,0.07795 -0.979171,0.143845 -1.636231,0.149414 -0.657059,0.0056 -1.482171,-0.05007 -2.206054,-0.139161 -0.723883,-0.08904 -1.347145,-0.211125 -1.981934,-0.383742 -0.634789,-0.172616 -1.280644,-0.395402 -1.904297,-0.70166 -0.623652,-0.306257 -1.225,-0.695657 -1.792969,-1.113281 -0.567968,-0.417623 -1.10169,-0.863504 -1.580566,-1.353516 -0.478876,-0.490007 -0.903407,-1.024052 -1.231937,-1.502926 -0.32853,-0.478874 -0.56181,-0.902173 -0.85693,-1.403321 -0.29512,-0.501146 -0.65175,-1.08059 -0.95801,-1.576171 -0.30626,-0.495582 -0.5624,-0.907461 -0.84082,-1.369629 -0.27841,-0.462169 -0.57938,-0.975106 -0.90234,-1.526367 -0.32296,-0.551262 -0.66697,-1.140303 -1.01221,-1.797364 -0.34523,-0.657059 -0.6907,-1.381699 -1.0415,-2.061035 -0.35081,-0.679334 -0.70741,-1.313463 -1.04151,-1.92041 -0.3341,-0.606947 -0.6456,-1.186014 -0.94629,-1.820801 -0.30069,-0.634787 -0.59051,-1.325736 -0.90234,-2.027344 -0.31182,-0.701607 -0.64618,-1.414528 -0.95801,-2.049316 -0.31182,-0.634789 -0.60148,-1.191365 -0.53467,-1.592285 0.0668,-0.400921 0.49027,-0.646502 0.95801,-0.880371 0.46774,-0.23387 0.97979,-0.456054 1.53662,-0.745606 0.55683,-0.289552 1.1582,-0.645599 1.73731,-0.946289 0.5791,-0.300689 1.13587,-0.545353 1.90429,-1.001953 0.76843,-0.4566 1.7484,-1.125654 2.71729,-1.782715 0.96889,-0.657061 1.926472,-1.303163 3.05127,-2.049316 1.124798,-0.746154 2.416609,-1.592018 3.530273,-2.371582 1.113664,-0.779565 2.049274,-1.492992 3.029297,-2.283692 0.980023,-0.7907 2.004445,-1.659381 2.995605,-2.494629 0.991161,-0.835247 1.949664,-1.636489 2.929688,-2.594238 0.980023,-0.957749 1.981327,-2.070644 2.894531,-3.095215 0.913205,-1.024571 1.737619,-1.960801 2.52832,-2.929687 0.790702,-0.968887 1.548656,-1.970999 2.339356,-3.106934 0.7907,-1.135935 1.614891,-2.404871 2.327637,-3.574219 0.712745,-1.169347 1.314055,-2.239045 1.904297,-3.430664 0.590241,-1.191618 1.168527,-2.50619 1.524902,-3.820312 0.356375,-1.314123 0.490139,-2.628373 0.479004,-3.897949 -0.01113,-1.269537 -0.166879,-2.494507 -0.500977,-3.585898 -0.334096,-1.091408 -0.846151,-2.049009 -1.53662,-2.995622 -0.690469,-0.946614 -1.560054,-1.880873 -2.428711,-2.693848 -0.868657,-0.812974 -1.736098,-1.504183 -2.693847,-2.116698 -0.95775,-0.612516 -2.005291,-1.146538 -3.09668,-1.558594 -1.091389,-0.412057 -2.227608,-0.701565 -3.452637,-0.979981 -1.225028,-0.278416 -2.538754,-0.546047 -3.719238,-0.679687 -1.180485,-0.133641 -2.227083,-0.133301 -3.273926,-0.133301 z m -24.862794,47.648438 c 0.0814,0.0031 0.15082,0.01995 0.21973,0.05127 0.0919,0.04176 0.18175,0.108514 0.26806,0.194825 0.0863,0.08631 0.1702,0.192301 0.23145,0.284179 0.0613,0.09188 0.1005,0.170483 0.0615,0.657715 -0.039,0.487233 -0.15685,1.383565 -0.271,2.182617 -0.11415,0.799052 -0.22599,1.500247 -0.31787,2.06543 -0.0919,0.565183 -0.16374,0.994204 -0.2417,1.378418 -0.078,0.384214 -0.16182,0.723985 -0.22265,0.956543 -0.0608,0.232558 -0.0992,0.358277 -0.14649,0.430664 -0.0473,0.07239 -0.10358,0.09141 -0.13183,0.101074 -0.0283,0.0097 -0.0282,0.0097 -0.20362,0.02637 -0.1754,0.01671 -0.52519,0.0495 -0.82031,0.07178 -0.29512,0.02227 -0.53458,0.03427 -0.78516,0.04541 -0.25057,0.01114 -0.51217,0.02227 -0.75439,0 -0.24222,-0.02227 -0.4659,-0.07894 -0.66357,-0.131836 -0.19768,-0.0529 -0.36984,-0.103237 -0.49512,-0.200684 -0.12529,-0.09745 -0.20286,-0.242224 -0.27246,-0.42041 -0.0696,-0.178186 -0.13095,-0.38899 -0.16992,-0.600586 -0.039,-0.211595 -0.0568,-0.423535 -0.0513,-0.707519 0.006,-0.283985 0.0346,-0.639597 0.0791,-0.9375 0.0446,-0.297904 0.10515,-0.537949 0.18311,-0.796875 0.078,-0.258926 0.17238,-0.537949 0.27539,-0.796875 0.10302,-0.258927 0.21412,-0.497534 0.33106,-0.711914 0.11693,-0.21438 0.2396,-0.403503 0.36767,-0.584473 0.12807,-0.18097 0.26202,-0.353261 0.39844,-0.525879 0.13642,-0.172618 0.27608,-0.34654 0.40137,-0.474609 0.12528,-0.12807 0.23666,-0.211045 0.39257,-0.325196 0.15592,-0.11415 0.3556,-0.258647 0.54493,-0.386718 0.18932,-0.128071 0.36862,-0.239459 0.583,-0.364746 0.21438,-0.125288 0.46444,-0.265255 0.66211,-0.351563 0.19768,-0.08631 0.34171,-0.11909 0.46143,-0.127441 0.0299,-0.0021 0.0593,-0.0025 0.0864,-0.0015 z m 2.73633,5.542968 c 0.0362,-7.54e-4 0.12463,-0.03648 0.15967,-0.01173 0.0467,0.03301 0.10761,0.09698 0.15686,0.164861 0.0493,0.06788 0.10793,0.142978 0.16699,0.221695 0.0591,0.07872 0.10574,0.156322 0.16482,0.239982 0.0591,0.08366 0.10103,0.18576 0.16946,0.280747 0.0684,0.09499 0.14623,0.212038 0.19386,0.297822 0.0476,0.08579 0.0562,0.189507 0.0591,0.240696 0.003,0.05119 -0.0255,0.07008 -0.0747,0.09961 -0.0492,0.02953 -0.11992,0.06902 -0.20654,0.108399 -0.0866,0.03937 -0.18808,0.07827 -0.3003,0.121581 -0.11221,0.04331 -0.2354,0.09054 -0.35156,0.125978 -0.11615,0.03544 -0.22621,0.05996 -0.33252,0.07178 -0.10631,0.01181 -0.20814,0.0115 -0.25342,-0.02197 -0.0453,-0.03347 -0.0328,-0.101066 -0.022,-0.227051 0.0109,-0.125986 0.0203,-0.310538 0.0425,-0.499512 0.0222,-0.188973 0.0564,-0.382339 0.0937,-0.550781 0.0373,-0.168442 0.0312,-0.26655 0.0908,-0.391113 0.12259,-0.255972 0.0744,-0.154724 0.0747,-0.155274 0,-10e-7 0.0174,-0.0091 0.0352,-0.03076 0.0177,-0.02166 0.0534,-0.06439 0.0982,-0.0791 0.0112,-0.0037 0.0231,-0.0056 0.0352,-0.0059 z"
       sodipodi:nodetypes="cssssssssssssssssssssssssssscsssssssssssssssssssssssssssssssasasssssssssssssssssssssssssssssssssssscssssssssssssssssssssssssssssssssssssssscsssssscssssssssssssssssssssssssszsssssszaaasssssssssssssssssssssssssscsssssssscssssssssssssssssssssssssssssssssssssssssssccssssssssccssssssscsssssssssssscccssssszcsssssssssssssccs"
       clip-path="url(#clipPath11)"
       inkscape:path-effect="#path-effect11"
       inkscape:original-d="m -92.907346,11.136054 c -1.046843,0 -2.093255,-0.0012 -2.961914,0.03223 -0.868659,0.03341 -1.560074,0.101337 -2.373047,0.19043 -0.812973,0.08909 -1.747779,0.200308 -2.816893,0.445312 -1.06912,0.245004 -2.27157,0.62359 -3.44092,1.035645 -1.16935,0.412055 -2.30498,0.857645 -3.44092,1.347657 -1.13593,0.490011 -2.27277,1.023735 -3.35302,1.580565 -1.08026,0.556831 -2.10434,1.13649 -3.12891,1.804688 -1.02457,0.668196 -2.04957,1.42478 -3.00733,2.059569 -0.95775,0.634789 -1.84889,1.147046 -2.80664,1.792969 -0.95774,0.645923 -1.98106,1.425345 -2.80517,2.126953 -0.82411,0.701608 -1.44822,1.326356 -2.08301,1.927734 -0.63479,0.601379 -1.28151,1.180737 -1.94971,1.82666 -0.66819,0.645924 -1.35858,1.357399 -1.95996,1.992188 -0.60138,0.634789 -1.11309,1.192756 -1.66992,1.816406 -0.55683,0.62365 -1.1585,1.313735 -1.71533,1.981935 -0.55683,0.668197 -1.06826,1.313998 -1.63623,2.071288 -0.56797,0.75729 -1.19221,1.626291 -1.69336,2.416992 -0.50115,0.790701 -0.87937,1.503565 -1.22461,2.216309 -0.34524,0.712744 -0.65794,1.425045 -0.8584,2.148925 -0.20046,0.723881 -0.28885,1.458737 -0.32226,2.182618 -0.0334,0.723881 -0.0106,1.4365 0.0117,2.071289 0.0223,0.634788 0.0433,1.192228 0.14356,1.637695 0.10023,0.445466 0.27853,0.778356 0.53467,0.956543 0.25614,0.178187 0.59027,0.201266 0.75732,0.212402 0.16705,0.01114 0.16783,0.01058 0.2959,-0.09521 0.12807,-0.105796 0.38402,-0.317476 0.55664,-0.618164 0.17262,-0.300688 0.26132,-0.690663 0.30029,-1.152832 0.039,-0.462169 0.0275,-0.99532 0.022,-1.541015 -0.006,-0.545695 -0.005,-1.102564 0.0176,-1.598145 0.0223,-0.495581 0.0659,-0.930314 0.12159,-1.381347 0.0557,-0.451034 0.12329,-0.919459 0.26806,-1.41504 0.14478,-0.49558 0.367,-1.018758 0.63428,-1.564453 0.26728,-0.545694 0.57966,-1.11309 0.93603,-1.669922 0.35638,-0.556831 0.75719,-1.102846 1.17481,-1.631835 0.41762,-0.52899 0.85118,-1.040704 1.38574,-1.669922 0.53456,-0.629219 1.17019,-1.376104 1.81055,-2.144532 0.64035,-0.768427 1.28648,-1.558344 1.96582,-2.282226 0.67933,-0.723882 1.39135,-1.381711 2.11523,-2.033203 0.72388,-0.651493 1.45845,-1.29675 2.17676,-1.948242 0.71831,-0.651493 1.42096,-1.308506 2.09473,-1.848633 0.67376,-0.540128 1.31963,-0.963734 1.87646,-1.353516 0.55683,-0.389782 1.02408,-0.746673 1.41944,-1.047363 0.39535,-0.30069 0.71883,-0.544845 1.04736,-0.767578 0.32853,-0.222734 0.66197,-0.422964 1.07959,-0.667969 0.41762,-0.245005 0.91829,-0.535446 1.3916,-0.830566 0.47331,-0.295121 0.91943,-0.594895 1.49853,-0.962403 0.57911,-0.367508 1.29208,-0.802609 1.91016,-1.164551 0.61809,-0.361941 1.14181,-0.651469 1.6875,-0.924316 0.5457,-0.272847 1.11307,-0.52814 1.72559,-0.767578 0.61251,-0.239438 1.26918,-0.463106 2.00976,-0.691406 0.74059,-0.228301 1.56538,-0.461932 2.28369,-0.695801 0.71832,-0.233869 1.33097,-0.466918 2.16065,-0.684082 0.829675,-0.217165 1.875283,-0.418597 2.74951,-0.580078 0.874228,-0.161482 1.576368,-0.283277 2.729004,-0.350098 1.152637,-0.06682 2.756976,-0.07795 4.048828,-0.02783 1.291852,0.05011 2.270802,0.160784 3.117188,0.322265 0.846386,0.16148 1.559556,0.372594 2.166504,0.550781 0.606948,0.178186 1.107841,0.323964 1.592285,0.496582 0.484444,0.172617 0.952879,0.373168 1.387207,0.590332 0.434329,0.217164 0.930338,0.36083 1.375488,0.584473 0.451909,0.227037 0.891947,0.493265 1.309571,0.766113 0.417624,0.272847 0.798654,0.593553 1.185058,0.906738 0.337876,0.273853 0.606021,0.55449 0.990235,0.84961 0.384213,0.295119 0.785614,0.640013 1.158691,1.001953 0.373077,0.36194 0.717666,0.740496 1.023926,1.11914 0.306259,0.378645 0.573272,0.757219 0.779297,1.091309 0.206024,0.33409 0.350932,0.6239 0.479004,0.98584 0.128071,0.361939 0.239905,0.796131 0.345703,1.258301 0.105798,0.462169 0.206232,0.952249 0.256347,1.514648 0.05012,0.562399 0.04952,1.19745 0.01611,1.798828 -0.03341,0.60138 -0.09957,1.169045 -0.210938,1.731446 -0.111366,0.5624 -0.266836,1.118968 -0.439453,1.620118 -0.172617,0.501148 -0.362595,0.947263 -0.657715,1.526367 -0.29512,0.579103 -0.696258,1.291181 -1.069336,1.948243 -0.373077,0.657061 -0.718514,1.259246 -1.125,1.921876 -0.406486,0.662629 -0.873185,1.385212 -1.324219,2.075684 -0.451033,0.690471 -0.88665,1.348891 -1.371093,2.017089 -0.484443,0.668197 -1.018468,1.346254 -1.558594,2.02002 -0.540126,0.673766 -1.085268,1.343033 -1.614258,2.01123 -0.52899,0.668197 -1.041905,1.335436 -1.582031,1.942383 -0.540126,0.606946 -1.107804,1.152932 -1.703613,1.715332 -0.59581,0.5624 -1.219987,1.142087 -1.888184,1.721192 -0.668197,0.579104 -1.379963,1.157044 -1.998047,1.686035 -0.618084,0.52899 -1.142396,1.008532 -1.671387,1.470703 -0.52899,0.46217 -1.062713,0.906895 -1.580566,1.302246 -0.517853,0.39535 -1.019087,0.741397 -1.458984,1.053223 -0.439898,0.311826 -0.818696,0.590527 -1.26416,0.874511 -0.445465,0.283983 -0.958438,0.573532 -1.41504,0.868653 -0.456602,0.29512 -0.856208,0.595222 -1.262695,0.856933 -0.406486,0.26171 -0.819883,0.484487 -1.204103,0.729492 -0.38421,0.245005 -0.74018,0.512299 -1.16894,0.812987 -0.42876,0.300689 -0.92973,0.634462 -1.39746,0.946289 -0.46774,0.311828 -0.9025,0.601954 -1.32569,0.88037 -0.42319,0.278416 -0.83394,0.545127 -1.23486,0.801269 -0.40092,0.256143 -0.79116,0.500891 -1.21436,0.751465 -0.42319,0.250575 -0.88022,0.507624 -1.32568,0.774904 -0.44547,0.26728 -0.87961,0.546 -1.39746,0.818846 -0.51785,0.27285 -1.1187,0.539289 -1.55859,0.739747 -0.4399,0.200459 -0.71948,0.333692 -0.89209,0.328125 -0.17262,-0.0056 -0.23903,-0.149883 -0.35596,-0.495118 -0.11694,-0.345233 -0.28354,-0.891044 -0.43945,-1.375488 -0.15592,-0.484444 -0.30053,-0.907169 -0.47315,-1.36377 -0.17262,-0.456601 -0.37405,-0.947282 -0.58008,-1.470703 -0.20602,-0.523421 -0.41746,-1.080235 -0.47314,-1.765136 -0.0557,-0.684902 0.0451,-1.497338 0.17871,-2.427247 0.13364,-0.929907 0.30111,-1.976275 0.48486,-3.101074 0.18376,-1.124799 0.38314,-2.327263 0.5669,-3.413086 0.18375,-1.085822 0.35118,-2.055923 0.59619,-3.303221 0.245,-1.247301 0.56826,-2.772216 0.84668,-4.047364 0.27841,-1.275146 0.51263,-2.300371 0.70752,-3.208008 0.19489,-0.907637 0.35065,-1.697505 0.44531,-2.421387 0.0947,-0.723882 0.12802,-1.381766 0.13916,-1.866211 0.0111,-0.484445 -2.6e-4,-0.795614 -0.0894,-1.051758 -0.0891,-0.256143 -0.25657,-0.4567 -0.45703,-0.5625 -0.20046,-0.105799 -0.43411,-0.116332 -0.64014,-0.04395 -0.20603,0.07239 -0.38374,0.226946 -0.52295,0.533203 -0.13921,0.306255 -0.2393,0.763483 -0.38965,1.609862 -0.15034,0.846381 -0.35059,2.081959 -0.6123,3.43506 -0.26171,1.353099 -0.58497,2.823194 -0.84668,4.092773 -0.26171,1.269579 -0.46283,2.33963 -0.62988,3.241698 -0.16705,0.902069 -0.30083,1.637119 -0.45117,2.466797 -0.15035,0.829678 -0.31694,1.753122 -0.46729,2.616211 -0.15034,0.86309 -0.28443,1.665561 -0.40137,2.422852 -0.11693,0.757291 -0.21706,1.470192 -0.30615,2.10498 -0.0891,0.634789 -0.16667,1.191857 -0.24463,1.434082 -0.078,0.242225 -0.15524,0.169506 -0.23877,0.105469 -0.0835,-0.06404 -0.17324,-0.1201 -0.3208,-0.175781 -0.14756,-0.05568 -0.35354,-0.110737 -0.55957,-0.127442 -0.20603,-0.0167 -0.41242,0.0048 -0.65185,0.06885 -0.23944,0.06404 -0.51187,0.169865 -0.8042,0.336914 -0.29234,0.167049 -0.60459,0.396014 -0.90528,0.629883 -0.30069,0.233869 -0.59052,0.472186 -0.87451,0.706055 -0.28398,0.233869 -0.56123,0.463096 -0.84521,0.719238 -0.28399,0.256142 -0.57399,0.540141 -0.82178,0.812988 -0.24779,0.272848 -0.45359,0.533526 -0.66797,0.875977 -0.21438,0.34245 -0.43749,0.76627 -0.59619,1.161621 -0.1587,0.395351 -0.25354,0.762468 -0.33984,1.141113 -0.0863,0.378645 -0.16346,0.768472 -0.20801,1.149902 -0.0446,0.381431 -0.0567,0.75427 -0.0483,1.116211 0.008,0.361941 0.037,0.713265 0.10107,1.047364 0.064,0.334099 0.16446,0.651468 0.28418,0.924316 0.11972,0.272848 0.25892,0.501783 0.44824,0.713379 0.18933,0.211596 0.42882,0.405568 0.70166,0.541992 0.27285,0.136424 0.57866,0.215168 0.8877,0.268067 0.30904,0.0529 0.6204,0.07983 0.94336,0.09375 0.32296,0.01392 0.65732,0.01436 0.95801,0.0088 0.30069,-0.0056 0.56748,-0.01622 0.81152,-0.02783 0.24404,-0.01162 0.46491,-0.02363 0.55957,0.08057 0.0947,0.104198 0.0639,0.324045 0.009,0.654785 -0.0551,0.33074 -0.13457,0.771529 -0.22119,1.259766 -0.0866,0.488236 -0.18034,1.023285 -0.28272,1.598144 -0.10237,0.57486 -0.21274,1.189718 -0.35449,1.83545 -0.14174,0.645732 -0.31565,1.322644 -0.47314,2.015625 -0.1575,0.692981 -0.29807,1.402286 -0.45557,2.15039 -0.1575,0.748105 -0.33085,1.535234 -0.48047,2.20459 -0.14962,0.669356 -0.27665,1.220863 -0.42627,1.756348 -0.14962,0.535485 -0.3226,1.055148 -0.52734,1.614258 -0.20475,0.559109 -0.44053,1.157695 -0.61377,1.653808 -0.17325,0.496113 -0.28344,0.888922 -0.31494,1.227539 -0.0315,0.338617 0.015,0.622883 0.0937,0.890625 0.0787,0.267743 0.18967,0.520177 0.34717,0.685547 0.15749,0.16537 0.36177,0.243891 0.61376,0.275391 0.252,0.0315 0.55202,0.0154 0.82764,-0.14209 0.27562,-0.157493 0.52731,-0.456245 0.71631,-0.802735 0.189,-0.346489 0.31492,-0.740581 0.44092,-1.252441 0.12599,-0.51186 0.25229,-1.142484 0.39404,-1.709473 0.14175,-0.566988 0.29917,-1.069796 0.44092,-1.628906 0.14175,-0.55911 0.26694,-1.173968 0.40869,-1.835449 0.14175,-0.661481 0.29917,-1.370257 0.44092,-2.031738 0.14174,-0.661481 0.26878,-1.275425 0.36328,-1.826661 0.0945,-0.551235 0.15746,-1.040145 0.25195,-1.520507 0.0945,-0.480362 0.22759,-0.946851 0.32227,-1.432618 0.0947,-0.485767 0.18163,-0.969096 0.24463,-1.480957 0.063,-0.51186 0.1104,-1.046872 0.16552,-1.541015 0.0551,-0.494143 0.11782,-0.946685 0.16114,-1.328613 0.0433,-0.381929 0.0661,-0.693736 0.0996,-1.016602 0.0335,-0.322866 0.0446,-0.465653 0.10107,-0.689942 0.0267,-0.106284 0.13552,-0.291409 0.24175,-0.30084 0.28651,-0.02543 0.0941,-0.0011 0.24605,-0.01268 0.15196,-0.01159 0.19967,-0.02332 0.29882,-0.03959 0.12767,-0.02096 0.25377,-0.05054 0.38086,-0.07471 0.20925,-0.03979 0.41712,-0.08893 0.62842,-0.115726 0.20735,-0.02629 -0.1055,-0.01903 0.62549,-0.04394 0.43109,-0.01469 0.39448,-0.09543 0.45703,0.06884 0.0705,0.185192 0.0907,0.141754 0.2666,0.585937 0.17593,0.444184 0.41704,1.033645 0.68262,1.656739 0.26558,0.623094 0.55447,1.280008 0.90527,2.05957 0.35081,0.779562 0.76276,1.681372 1.14697,2.460937 0.38422,0.779566 0.7405,1.437356 1.11915,2.144532 0.37864,0.707176 0.78058,1.46364 1.30957,2.421386 0.52898,0.957747 1.18545,2.1158 1.72558,3.023438 0.54013,0.907638 0.96283,1.564507 1.41944,2.266113 0.4566,0.701607 0.94726,1.448455 1.52636,2.25586 0.57911,0.807404 1.24785,1.675551 1.83252,2.34375 0.58468,0.668198 1.08585,1.136576 1.625978,1.554199 0.540126,0.417623 1.118322,0.785041 1.803223,1.11914 0.684901,0.3341 1.475667,0.634492 2.383301,0.862793 0.907633,0.228302 1.932968,0.384633 2.901855,0.484864 0.968887,0.10023 1.881473,0.144436 2.649902,0.1333 0.768429,-0.01113 1.392547,-0.07789 2.055176,-0.194824 0.66263,-0.116934 1.364114,-0.284404 2.071289,-0.484863 0.707175,-0.200459 1.418895,-0.434382 2.137207,-0.70166 0.718312,-0.267279 1.443534,-0.567373 2.072754,-0.884766 0.62922,-0.317393 1.162866,-0.651421 1.803223,-1.063476 0.640356,-0.412056 1.386734,-0.903092 1.910156,-1.281739 0.523423,-0.378646 0.823747,-0.645309 1.057617,-0.940429 0.23387,-0.295121 0.400756,-0.617477 0.473145,-0.912598 0.07239,-0.295121 0.05043,-0.563323 -0.07764,-0.719238 -0.12807,-0.155915 -0.361731,-0.199509 -0.612305,-0.205078 -0.250573,-0.0056 -0.518169,0.02662 -0.791015,0.143554 -0.272847,0.116933 -0.551549,0.318076 -0.874512,0.574219 -0.322963,0.256143 -0.68949,0.568526 -1.157227,0.936035 -0.467736,0.367509 -1.036636,0.789727 -1.560058,1.129395 -0.523422,0.339668 -1.002346,0.595806 -1.570313,0.868652 -0.567967,0.272846 -1.224981,0.563014 -1.848632,0.769043 -0.623652,0.206029 -1.213291,0.327795 -1.753418,0.433594 -0.540127,0.105798 -1.030497,0.19597 -1.520508,0.273926 -0.490012,0.07795 -0.979171,0.143845 -1.636231,0.149414 -0.657059,0.0056 -1.482171,-0.05007 -2.206054,-0.139161 -0.723883,-0.08904 -1.347145,-0.211125 -1.981934,-0.383742 -0.634789,-0.172616 -1.280644,-0.395402 -1.904297,-0.70166 -0.623652,-0.306257 -1.225,-0.695657 -1.792969,-1.113281 -0.567968,-0.417623 -1.10169,-0.863504 -1.580566,-1.353516 -0.478876,-0.490007 -0.903407,-1.024052 -1.231937,-1.502926 -0.32853,-0.478874 -0.56181,-0.902173 -0.85693,-1.403321 -0.29512,-0.501146 -0.65175,-1.08059 -0.95801,-1.576171 -0.30626,-0.495582 -0.5624,-0.907461 -0.84082,-1.369629 -0.27841,-0.462169 -0.57938,-0.975106 -0.90234,-1.526367 -0.32296,-0.551262 -0.66697,-1.140303 -1.01221,-1.797364 -0.34523,-0.657059 -0.6907,-1.381699 -1.0415,-2.061035 -0.35081,-0.679334 -0.70741,-1.313463 -1.04151,-1.92041 -0.3341,-0.606947 -0.6456,-1.186014 -0.94629,-1.820801 -0.30069,-0.634787 -0.59051,-1.325736 -0.90234,-2.027344 -0.31182,-0.701607 -0.64618,-1.414528 -0.95801,-2.049316 -0.31182,-0.634789 -0.60148,-1.191365 -0.53467,-1.592285 0.0668,-0.400921 0.49027,-0.646502 0.95801,-0.880371 0.46774,-0.23387 0.97979,-0.456054 1.53662,-0.745606 0.55683,-0.289552 1.1582,-0.645599 1.73731,-0.946289 0.5791,-0.300689 1.13587,-0.545353 1.90429,-1.001953 0.76843,-0.4566 1.7484,-1.125654 2.71729,-1.782715 0.96889,-0.657061 1.926472,-1.303163 3.05127,-2.049316 1.124798,-0.746154 2.416609,-1.592018 3.530273,-2.371582 1.113664,-0.779565 2.049274,-1.492992 3.029297,-2.283692 0.980023,-0.7907 2.004445,-1.659381 2.995605,-2.494629 0.991161,-0.835247 1.949664,-1.636489 2.929688,-2.594238 0.980023,-0.957749 1.981327,-2.070644 2.894531,-3.095215 0.913205,-1.024571 1.737619,-1.960801 2.52832,-2.929687 0.790702,-0.968887 1.548656,-1.970999 2.339356,-3.106934 0.7907,-1.135935 1.614891,-2.404871 2.327637,-3.574219 0.712745,-1.169347 1.314055,-2.239045 1.904297,-3.430664 0.590241,-1.191618 1.168527,-2.50619 1.524902,-3.820312 0.356375,-1.314123 0.490139,-2.628373 0.479004,-3.897949 -0.01113,-1.269537 -0.166879,-2.494507 -0.500977,-3.585898 -0.334096,-1.091408 -0.846151,-2.049009 -1.53662,-2.995622 -0.690469,-0.946614 -1.560054,-1.880873 -2.428711,-2.693848 -0.868657,-0.812974 -1.736098,-1.504183 -2.693847,-2.116698 -0.95775,-0.612516 -2.005291,-1.146538 -3.09668,-1.558594 -1.091389,-0.412057 -2.227608,-0.701565 -3.452637,-0.979981 -1.225028,-0.278416 -2.538754,-0.546047 -3.719238,-0.679687 -1.180485,-0.133641 -2.227083,-0.133301 -3.273926,-0.133301 z m -24.862794,47.648438 c 0.0814,0.0031 0.15082,0.01995 0.21973,0.05127 0.0919,0.04176 0.18175,0.108514 0.26806,0.194825 0.0863,0.08631 0.1702,0.192301 0.23145,0.284179 0.0613,0.09188 0.1005,0.170483 0.0615,0.657715 -0.039,0.487233 -0.15685,1.383565 -0.271,2.182617 -0.11415,0.799052 -0.22599,1.500247 -0.31787,2.06543 -0.0919,0.565183 -0.16374,0.994204 -0.2417,1.378418 -0.078,0.384214 -0.16182,0.723985 -0.22265,0.956543 -0.0608,0.232558 -0.0992,0.358277 -0.14649,0.430664 -0.0473,0.07239 -0.10358,0.09141 -0.13183,0.101074 -0.0283,0.0097 -0.0282,0.0097 -0.20362,0.02637 -0.1754,0.01671 -0.52519,0.0495 -0.82031,0.07178 -0.29512,0.02227 -0.53458,0.03427 -0.78516,0.04541 -0.25057,0.01114 -0.51217,0.02227 -0.75439,0 -0.24222,-0.02227 -0.4659,-0.07894 -0.66357,-0.131836 -0.19768,-0.0529 -0.36984,-0.103237 -0.49512,-0.200684 -0.12529,-0.09745 -0.20286,-0.242224 -0.27246,-0.42041 -0.0696,-0.178186 -0.13095,-0.38899 -0.16992,-0.600586 -0.039,-0.211595 -0.0568,-0.423535 -0.0513,-0.707519 0.006,-0.283985 0.0346,-0.639597 0.0791,-0.9375 0.0446,-0.297904 0.10515,-0.537949 0.18311,-0.796875 0.078,-0.258926 0.17238,-0.537949 0.27539,-0.796875 0.10302,-0.258927 0.21412,-0.497534 0.33106,-0.711914 0.11693,-0.21438 0.2396,-0.403503 0.36767,-0.584473 0.12807,-0.18097 0.26202,-0.353261 0.39844,-0.525879 0.13642,-0.172618 0.27608,-0.34654 0.40137,-0.474609 0.12528,-0.12807 0.23666,-0.211045 0.39257,-0.325196 0.15592,-0.11415 0.3556,-0.258647 0.54493,-0.386718 0.18932,-0.128071 0.36862,-0.239459 0.583,-0.364746 0.21438,-0.125288 0.46444,-0.265255 0.66211,-0.351563 0.19768,-0.08631 0.34171,-0.11909 0.46143,-0.127441 0.0299,-0.0021 0.0593,-0.0025 0.0864,-0.0015 z m 2.73633,5.542968 c 0.0362,-7.54e-4 0.12463,-0.03648 0.15967,-0.01173 0.0467,0.03301 0.10761,0.09698 0.15686,0.164861 0.0493,0.06788 0.10793,0.142978 0.16699,0.221695 0.0591,0.07872 0.10574,0.156322 0.16482,0.239982 0.0591,0.08366 0.10103,0.18576 0.16946,0.280747 0.0684,0.09499 0.14623,0.212038 0.19386,0.297822 0.0476,0.08579 0.0562,0.189507 0.0591,0.240696 0.003,0.05119 -0.0255,0.07008 -0.0747,0.09961 -0.0492,0.02953 -0.11992,0.06902 -0.20654,0.108399 -0.0866,0.03937 -0.18808,0.07827 -0.3003,0.121581 -0.11221,0.04331 -0.2354,0.09054 -0.35156,0.125978 -0.11615,0.03544 -0.22621,0.05996 -0.33252,0.07178 -0.10631,0.01181 -0.20814,0.0115 -0.25342,-0.02197 -0.0453,-0.03347 -0.0328,-0.101066 -0.022,-0.227051 0.0109,-0.125986 0.0203,-0.310538 0.0425,-0.499512 0.0222,-0.188973 0.0564,-0.382339 0.0937,-0.550781 0.0373,-0.168442 0.0312,-0.26655 0.0908,-0.391113 0.12259,-0.255972 0.0744,-0.154724 0.0747,-0.155274 0,-10e-7 0.0174,-0.0091 0.0352,-0.03076 0.0177,-0.02166 0.0534,-0.06439 0.0982,-0.0791 0.0112,-0.0037 0.0231,-0.0056 0.0352,-0.0059 z" />
    <path
       style="fill:#000000;fill-opacity:1;stroke-width:0.566929"
       d="m 65.611775,61.584581 c -0.149155,0 -0.447465,0 -0.723681,0.06077 -0.276217,0.06077 -0.530329,0.1823 -0.784448,0.430896 -0.254119,0.248596 -0.50823,0.624239 -0.729202,1.055137 -0.220973,0.430898 -0.408795,0.917024 -0.557951,1.397641 -0.149157,0.480616 -0.25964,0.955694 -0.375651,1.408688 -0.116011,0.452995 -0.237543,0.883879 -0.33698,1.320301 -0.09944,0.436422 -0.176776,0.878356 -0.243068,1.419741 -0.06629,0.541385 -0.121533,1.182187 -0.182301,1.740143 -0.06077,0.557957 -0.127058,1.033034 -0.182301,1.557846 -0.05524,0.524812 -0.09944,1.099325 -0.132582,1.657282 -0.03315,0.557956 -0.05524,1.099324 -0.04972,1.762245 0.0055,0.662921 0.03867,1.447354 0.07182,2.154465 0.03315,0.707111 0.06629,1.336863 0.138111,1.905869 0.07182,0.569007 0.182301,1.077229 0.336983,1.541272 0.154682,0.464044 0.353551,0.883879 0.591097,1.292678 0.237546,0.408799 0.513754,0.806539 0.784446,1.132474 0.270692,0.325935 0.535853,0.580049 0.789973,0.740253 0.254119,0.160204 0.497181,0.226492 0.696058,0.226491 0.198876,-2e-6 0.353548,-0.06629 0.464034,-0.171249 0.110487,-0.104961 0.176779,-0.248595 0.187826,-0.414323 0.01105,-0.165728 -0.03315,-0.35355 -0.149157,-0.585573 -0.116012,-0.232024 -0.303835,-0.508233 -0.464042,-0.734731 -0.160208,-0.226497 -0.292787,-0.403266 -0.419849,-0.62424 -0.127061,-0.220975 -0.248591,-0.48613 -0.342505,-0.817593 -0.09391,-0.331462 -0.160204,-0.729202 -0.204398,-1.209817 -0.04419,-0.480615 -0.06629,-1.044083 -0.07734,-1.740151 -0.01105,-0.696067 -0.01105,-1.524689 1e-6,-2.33124 0.01105,-0.806551 0.03314,-1.590982 0.07734,-2.414107 0.04419,-0.823125 0.110484,-1.684894 0.248593,-2.568787 0.138109,-0.883892 0.348027,-1.789855 0.607671,-2.624027 0.259644,-0.834173 0.568997,-1.596507 0.839689,-2.281523 0.270691,-0.685016 0.502706,-1.292674 0.62424,-1.773289 0.121533,-0.480615 0.132579,-0.834162 0.116005,-1.132475 -0.01657,-0.298313 -0.06077,-0.541375 -0.143632,-0.762348 -0.08286,-0.220973 -0.204397,-0.419843 -0.265164,-0.51928 -0.06077,-0.09944 -0.06076,-0.09944 -0.209917,-0.09944 z"
       id="path6"
       inkscape:original-d="m 65.760931,61.584581 c -0.298311,0 -0.596621,0 -0.894932,0 -0.254122,0.121536 -0.508234,0.243068 -0.76235,0.364602 -0.254122,0.375658 -0.508233,0.751301 -0.762349,1.126952 -0.18783,0.486145 -0.375651,0.972271 -0.563476,1.458407 -0.110488,0.475097 -0.220971,0.950175 -0.331457,1.425262 -0.121536,0.430902 -0.243067,0.861786 -0.364602,1.29268 -0.07734,0.44195 -0.154679,0.883884 -0.232019,1.325825 -0.05525,0.640828 -0.110485,1.281631 -0.165728,1.922447 -0.06629,0.475097 -0.132582,0.950174 -0.198874,1.425262 -0.0442,0.574536 -0.08839,1.149049 -0.132582,1.723573 -0.0221,0.541389 -0.0442,1.082757 -0.06629,1.624137 0.03314,0.784462 0.06629,1.568895 0.09944,2.353335 0.03315,0.629782 0.06629,1.259534 0.09944,1.889302 0.110488,0.508245 0.220971,1.016467 0.331457,1.524697 0.198877,0.419858 0.397747,0.839693 0.596621,1.259535 0.276219,0.397755 0.552427,0.795495 0.828641,1.193243 0.26517,0.254122 0.53033,0.508237 0.795495,0.762352 0.243073,0.0663 0.486136,0.132585 0.729204,0.19887 0.154683,-0.0663 0.309359,-0.132577 0.464039,-0.19887 0.06629,-0.143632 0.132583,-0.287265 0.198873,-0.43089 C 65.385282,83.637472 65.341092,83.44965 65.2969,83.26182 65.109071,82.985602 64.92125,82.709392 64.733424,82.433182 64.60083,82.2564 64.46825,82.079632 64.335667,81.90285 64.214132,81.63768 64.0926,81.372525 63.971065,81.107355 63.904773,80.7096 63.838483,80.31186 63.772192,79.914112 c -0.0221,-0.563482 -0.0442,-1.12695 -0.06629,-1.690425 0,-0.82866 0,-1.657282 0,-2.48592 0.0221,-0.784464 0.0442,-1.568895 0.06629,-2.353341 0.06629,-0.861804 0.132583,-1.723573 0.198873,-2.58536 0.209927,-0.905998 0.419845,-1.811961 0.629768,-2.717941 0.309365,-0.762365 0.618718,-1.524699 0.928077,-2.287049 0.232025,-0.607682 0.464039,-1.21534 0.696059,-1.82301 0.01105,-0.35356 0.02209,-0.707107 0.03314,-1.06066 -0.0442,-0.243072 -0.08839,-0.486135 -0.132582,-0.729204 -0.121537,-0.198877 -0.243068,-0.397747 -0.364602,-0.596621 z"
       inkscape:path-effect="#path-effect6"
       transform="translate(-147.43176,2.9168155)" />
    <path
       style="fill:#000000;fill-opacity:1;stroke-width:0.566929"
       d="m 70.097484,49.900747 c -0.204399,0.04972 -0.613194,0.149155 -0.834166,0.452994 -0.220972,0.30384 -0.254118,0.812064 -0.193351,1.397643 0.06077,0.585579 0.215445,1.248479 0.408797,1.76224 0.193352,0.513761 0.425366,0.878355 0.629766,1.20429 0.2044,0.325935 0.381172,0.613191 0.624244,0.839688 0.243071,0.226497 0.552424,0.392222 0.861786,0.464038 0.309362,0.07182 0.618716,0.04972 0.850737,-0.0221 0.232021,-0.07182 0.386697,-0.193349 0.464037,-0.370128 0.07734,-0.176779 0.07734,-0.408794 0.01657,-0.624242 -0.06077,-0.215448 -0.1823,-0.414319 -0.331457,-0.591097 -0.149157,-0.176777 -0.325931,-0.331455 -0.486136,-0.530331 -0.160205,-0.198875 -0.303833,-0.441939 -0.397746,-0.718156 -0.09391,-0.276217 -0.138107,-0.585569 -0.171252,-0.839688 -0.03315,-0.254118 -0.05524,-0.452989 -0.07182,-0.679486 -0.01657,-0.226498 -0.02762,-0.480609 -0.06629,-0.66291 -0.03867,-0.182302 -0.104961,-0.292786 -0.193351,-0.403272 -0.08839,-0.110487 -0.198872,-0.220971 -0.353554,-0.342506 -0.154682,-0.121535 -0.353551,-0.254115 -0.452988,-0.320407 -0.09944,-0.06629 -0.09943,-0.06629 -0.303828,-0.01657 z"
       id="path7"
       inkscape:original-d="m 70.301882,49.851028 c -0.408796,0.09944 -0.817592,0.198873 -1.226389,0.298311 -0.03315,0.508242 -0.06629,1.016466 -0.09944,1.524699 0.154682,0.662925 0.309359,1.325825 0.464038,1.988737 0.232024,0.36461 0.464039,0.729204 0.696059,1.093806 0.17678,0.287268 0.353553,0.574524 0.530329,0.861787 0.309366,0.165731 0.618719,0.331456 0.928078,0.497184 0.309365,-0.0221 0.618719,-0.0442 0.928078,-0.06629 0.154683,-0.121537 0.309359,-0.243069 0.464039,-0.364603 0,-0.232024 0,-0.464039 0,-0.696058 -0.121537,-0.198877 -0.243068,-0.397748 -0.364602,-0.596621 -0.17678,-0.154682 -0.353554,-0.30936 -0.53033,-0.464039 -0.143634,-0.243072 -0.287262,-0.486136 -0.430893,-0.729204 -0.0442,-0.309365 -0.08839,-0.618718 -0.132583,-0.928078 -0.0221,-0.198877 -0.0442,-0.397747 -0.06629,-0.596621 -0.01105,-0.254122 -0.0221,-0.508233 -0.03315,-0.762349 -0.06629,-0.110488 -0.132582,-0.220971 -0.198874,-0.331457 -0.110487,-0.110487 -0.22097,-0.220971 -0.331456,-0.331456 -0.198878,-0.132585 -0.397747,-0.265165 -0.596621,-0.397748 z"
       inkscape:path-effect="#path-effect7"
       transform="translate(-147.43176,2.9168155)" />
    <path
       id="path9"
       style="fill:#000000;fill-opacity:1;stroke-width:0.566929"
       d="m -48.71301,24.748846 c -1.182207,-0.0442 -2.286918,-7.7e-5 -3.402832,0.143555 -1.115914,0.143631 -2.242179,0.386363 -3.369141,0.839355 -1.126962,0.452993 -2.254098,1.11679 -3.215332,1.92334 -0.961234,0.80655 -1.756877,1.75635 -2.441894,2.794922 -0.685018,1.038572 -1.259205,2.165481 -1.87793,3.645997 -0.618724,1.480515 -1.281973,3.3139 -1.889648,5.446289 -0.607676,2.132388 -1.160047,4.563408 -1.568848,6.695801 -0.408801,2.132393 -0.673921,3.965814 -0.916992,5.567871 -0.243071,1.602057 -0.463722,2.9726 -0.666504,4.27002 -0.202782,1.297418 -0.388662,2.52187 -0.578613,3.669433 -0.189952,1.147562 -0.385252,2.217762 -0.561036,3.254883 -0.175783,1.03712 -0.331865,2.041336 -0.440917,2.745117 -0.109053,0.703781 -0.169737,1.106955 -0.212403,1.368163 -0.04266,0.26121 -0.04372,0.284496 -0.07617,0.350098 -0.01117,0.02258 -0.02205,0.01714 -0.03417,0.01954 -0.0231,0.0046 -0.05068,-9.11e-4 -0.09327,-5.11e-4 -0.06493,7e-4 -0.15206,-0.01042 -0.364746,-0.01318 -0.212687,-0.0028 -0.550086,0.0031 -0.900879,0.03076 -0.350794,0.02762 -0.739429,0.17365 -1.120606,0.259277 -0.381178,0.08563 -0.789524,0.266357 -1.151368,0.407227 -0.361844,0.140871 -0.688201,0.301686 -1.094238,0.541992 -0.406037,0.240308 -0.893024,0.55996 -1.246582,0.880371 -0.353558,0.320411 -0.574351,0.64057 -0.745606,0.98584 -0.171254,0.34527 -0.291756,0.715946 -0.344238,1.072266 -0.05248,0.356319 -0.03716,0.699287 0.02637,1.022461 0.06353,0.323173 0.175288,0.626127 0.360352,0.902343 0.185064,0.276217 0.443606,0.52559 0.681152,0.641602 0.237546,0.116012 0.454109,0.09864 0.647461,0.01025 0.193352,-0.08839 0.364079,-0.248151 0.449707,-0.402832 0.08563,-0.154681 0.08601,-0.304442 0.03076,-0.445313 -0.05524,-0.14087 -0.165531,-0.272383 -0.262207,-0.416015 -0.09668,-0.143632 -0.180553,-0.298291 -0.210938,-0.458496 -0.03038,-0.160206 -0.0072,-0.326166 0.04248,-0.51123 0.04972,-0.185064 0.126359,-0.389825 0.253418,-0.585937 0.127059,-0.196114 0.304403,-0.38455 0.51709,-0.541992 0.212686,-0.157444 0.460222,-0.283265 0.706054,-0.413086 0.245833,-0.129823 0.489768,-0.262546 0.691407,-0.364747 0.201638,-0.1022 0.360823,-0.174488 0.634277,-0.273925 0.273454,-0.09944 0.6612,-0.226509 0.984375,-0.290039 0.323175,-0.06353 0.582347,-0.06378 0.764648,-0.05273 0.182302,0.01105 0.287694,0.03328 0.345704,0.07471 0.05801,0.04143 0.06801,0.102756 0.0542,0.227051 -0.01381,0.124295 -0.05169,0.31152 -0.106934,0.593262 -0.05524,0.281742 -0.127901,0.656961 -0.247558,1.330078 -0.119658,0.673117 -0.286366,1.644093 -0.495118,2.980957 -0.208751,1.336864 -0.458493,3.04051 -0.763183,5.11084 -0.30469,2.070329 -0.664059,4.507785 -1.007813,6.703125 -0.343754,2.19534 -0.672359,4.147927 -1.023925,6.147949 -0.351567,2.000021 -0.726071,4.047343 -1.132325,6.062988 -0.406253,2.015644 -0.843745,3.999494 -1.289062,6.171394 -0.445317,2.17189 -0.898922,4.53122 -1.281738,6.51562 -0.382817,1.9844 -0.694822,3.59374 -0.968262,4.99219 -0.27344,1.39845 -0.508298,2.58641 -0.812988,4.11767 -0.304691,1.53127 -0.679196,3.40575 -1.202637,5.46827 -0.523442,2.06252 -1.195795,4.31199 -1.867676,6.26513 -0.671881,1.95315 -1.344232,3.60985 -1.937988,4.98487 -0.593756,1.37501 -1.108882,2.46922 -1.483887,3.20361 -0.375005,0.73438 -0.608884,1.10888 -0.874512,1.24951 -0.265628,0.14063 -0.56348,0.0464 -0.875976,-0.27393 -0.312497,-0.32031 -0.639645,-0.86718 -0.952149,-1.66406 -0.312503,-0.79688 -0.609372,-1.84276 -0.84375,-2.96777 -0.234377,-1.12501 -0.406248,-2.3286 -0.539062,-3.46143 -0.132814,-1.13282 -0.226563,-2.1953 -0.28125,-3.44531 -0.05469,-1.25001 -0.0708,-2.687 -0.06299,-4.06201 0.0078,-1.37502 0.03955,-2.68749 0.08642,-3.70313 0.04688,-1.01564 0.109376,-1.73437 0.04687,-2.22656 -0.0625,-0.49219 -0.250491,-0.75878 -0.437988,-0.87598 -0.187497,-0.11719 -0.375482,-0.0859 -0.555176,0.0937 -0.179694,0.17968 -0.350584,0.5083 -0.459961,1.18799 -0.109376,0.67969 -0.157226,1.71142 -0.196289,2.64112 -0.03906,0.9297 -0.06933,1.75731 -0.08496,2.81982 -0.01563,1.06251 -0.01563,2.35936 0.02344,3.77344 0.03906,1.41407 0.116698,2.94529 0.194824,4.33594 0.07813,1.39064 0.156737,2.64012 0.297363,3.71044 0.140626,1.07033 0.342773,1.96142 0.577149,2.89893 0.234376,0.93751 0.500484,1.92137 0.859863,2.6792 0.359379,0.75782 0.812496,1.28906 1.382813,1.57031 0.570316,0.28125 1.25829,0.31349 1.867675,0.19629 0.609385,-0.11719 1.139645,-0.38281 1.631836,-0.84375 0.492191,-0.46094 0.946285,-1.11767 1.368164,-1.8208 0.421879,-0.70313 0.812009,-1.45312 1.27295,-2.39062 0.46094,-0.93751 0.992182,-2.062 1.476562,-3.19483 0.48438,-1.13282 0.921381,-2.27342 1.390137,-3.67969 0.468755,-1.40626 0.969722,-3.07811 1.391601,-4.59375 0.42188,-1.51564 0.764645,-2.87547 1.163086,-4.58642 0.398442,-1.71096 0.851558,-3.77342 1.335938,-6.25781 0.484379,-2.4844 0.999995,-5.39011 1.476562,-7.78858 0.476568,-2.39846 0.914058,-4.28904 1.335938,-6.35156 0.421879,-2.06253 0.829097,-4.296856 1.250976,-6.539067 0.42188,-2.242212 0.858883,-4.492653 1.1792,-6.367676 0.320316,-1.875023 0.523435,-3.374498 0.75,-5.022949 0.226564,-1.648451 0.47656,-3.445785 0.703125,-5.172363 0.226564,-1.726579 0.429217,-3.382799 0.600585,-4.819336 0.171369,-1.436538 0.311035,-2.652821 0.449707,-3.730957 0.138673,-1.078137 0.276344,-2.018543 0.493653,-2.490235 0.217309,-0.471691 0.51458,-0.475109 0.959472,-0.480469 0.444893,-0.0054 1.037413,-0.01191 1.831055,-0.02637 0.793643,-0.01445 1.788158,-0.03729 2.819824,-0.04834 1.031667,-0.01105 2.10153,-0.01063 2.793457,-0.04102 0.691928,-0.03038 1.006402,-0.09065 1.17627,-0.08789 0.169868,0.0028 0.194538,0.06844 0.175781,0.134766 -0.01876,0.06633 -0.08111,0.133321 -0.155273,0.221191 -0.07416,0.08787 -0.160156,0.197266 -0.304688,0.38086 -0.144531,0.183594 -0.348142,0.440427 -0.578613,0.729492 -0.230471,0.289065 -0.488278,0.609859 -0.796875,0.953613 -0.308597,0.343754 -0.666988,0.710445 -1.022461,1.144043 -0.355473,0.433598 -0.708004,0.934076 -1.040039,1.469238 -0.332035,0.535162 -0.643552,1.105953 -0.905273,1.633301 -0.261722,0.527348 -0.472655,1.011225 -0.679688,1.530762 -0.207033,0.519536 -0.411131,1.074214 -0.536133,1.628906 -0.125002,0.554692 -0.171386,1.109857 -0.13623,1.598145 0.03516,0.488287 0.152342,0.910152 0.316406,1.230468 0.164064,0.320317 0.37451,0.538572 0.687012,0.745606 0.312501,0.207033 0.72705,0.401861 1.164551,0.51123 0.4375,0.109369 0.897942,0.133796 1.378417,0.114258 0.480476,-0.01954 0.980953,-0.08203 1.410645,-0.1875 0.429692,-0.10547 0.789547,-0.254393 1.187988,-0.426269 0.398442,-0.171877 0.834954,-0.367185 1.303711,-0.597657 0.468758,-0.230472 0.969723,-0.495604 1.368164,-0.757324 0.398441,-0.26172 0.778703,-0.555035 1.136719,-0.84082 0.358016,-0.285786 0.651363,-0.608883 1.010742,-0.874512 0.359379,-0.265629 0.680174,-0.460446 0.848145,-0.487793 0.16797,-0.02735 0.184083,0.112794 0.191894,0.382324 0.0078,0.26953 0.0078,0.667478 0.09375,1.120606 0.08594,0.453128 0.256834,0.96093 0.483399,1.359375 0.226565,0.398444 0.508298,0.687497 0.930176,0.914062 0.421877,0.226565 0.984855,0.3916 1.527832,0.407227 0.542976,0.01563 1.065424,-0.117187 1.620119,-0.339844 0.55469,-0.222657 1.14159,-0.536129 1.64941,-0.887695 0.50782,-0.351566 0.9375,-0.742184 1.35938,-1.160157 0.42187,-0.417972 0.83495,-0.863276 1.20996,-1.335937 0.375,-0.472661 0.71093,-0.971672 1.03125,-1.432617 0.32031,-0.460945 0.62499,-0.883785 0.77343,-0.969727 0.14845,-0.08594 0.1416,0.164547 0.12598,0.508301 -0.0156,0.343754 -0.0396,0.780757 -0.0513,1.319824 -0.0117,0.539068 -0.0112,1.18017 0.0864,1.785645 0.0977,0.605474 0.29247,1.175775 0.54638,1.664062 0.25391,0.488288 0.56592,0.894038 0.93311,1.202637 0.36719,0.308598 0.79003,0.51953 1.27441,0.632812 0.48438,0.113283 1.03027,0.129396 1.63184,0.02783 0.60157,-0.101564 1.25829,-0.32031 1.8208,-0.5625 0.56251,-0.242191 1.03076,-0.507323 1.5542,-0.851075 0.52344,-0.343751 1.10204,-0.766595 1.56299,-1.157226 0.46094,-0.390631 0.80468,-0.749509 0.98437,-1.108887 0.1797,-0.359378 0.19531,-0.718257 0.0234,-0.897949 -0.17187,-0.179692 -0.53173,-0.180664 -0.8833,-0.102539 -0.35157,0.07813 -0.69433,0.234861 -1.06934,0.461426 -0.375,0.226564 -0.78124,0.523922 -1.17187,0.836426 -0.39063,0.312504 -0.76562,0.640133 -1.125,0.897949 -0.35938,0.257817 -0.70312,0.445797 -1.03125,0.578614 -0.32813,0.132814 -0.6416,0.209961 -0.96973,0.225586 -0.32812,0.01563 -0.67138,-0.03125 -0.94482,-0.234375 -0.27344,-0.203126 -0.47607,-0.561518 -0.6167,-1.045899 -0.14063,-0.48438 -0.21972,-1.093746 -0.24317,-1.757812 -0.0234,-0.664067 0.008,-1.383291 0.0469,-2.148927 0.0391,-0.765635 0.0864,-1.578604 0.15674,-2.406738 0.0703,-0.828134 0.16455,-1.67187 0.2915,-2.701172 0.12695,-1.029302 0.28649,-2.244161 0.41748,-2.862305 0.13099,-0.618144 0.23357,-0.63922 0.36182,-0.666504 0.12825,-0.02728 0.28314,-0.05981 0.53174,-0.104004 0.24859,-0.0442 0.58996,-0.09932 0.84961,-0.215332 0.25964,-0.116011 0.43636,-0.293188 0.53027,-0.51416 0.0939,-0.220972 0.10599,-0.486547 0.21094,-0.707519 0.10495,-0.220973 0.30379,-0.397527 0.91699,-0.624024 0.61319,-0.226496 1.64042,-0.50333 2.65137,-0.735351 1.01095,-0.232022 2.00448,-0.419202 2.81103,-0.56836 0.80656,-0.149157 1.4264,-0.259495 1.8794,-0.480468 0.45299,-0.220974 0.74004,-0.553305 0.81738,-0.884766 0.0773,-0.331461 -0.0563,-0.662824 -0.33252,-0.79541 -0.27621,-0.132587 -0.69487,-0.06575 -1.37988,0.03369 -0.68502,0.09944 -1.63573,0.232038 -2.56934,0.386719 -0.93361,0.154681 -1.8513,0.331942 -2.74072,0.563965 -0.88942,0.232022 -1.75026,0.518313 -2.37451,0.755859 -0.62425,0.237546 -1.01088,0.425598 -1.18213,0.414551 -0.17126,-0.01105 -0.12794,-0.220337 -0.0396,-0.761719 0.0884,-0.541381 0.22224,-1.414035 0.36035,-2.436035 0.13811,-1.022 0.28117,-2.193676 0.4248,-3.414551 0.14364,-1.220875 0.28742,-2.491286 0.36475,-3.667969 0.0773,-1.176682 0.0885,-2.26012 0.0498,-3.127441 -0.0387,-0.867321 -0.1269,-1.519104 -0.28711,-2.027344 -0.1602,-0.50824 -0.393,-0.872468 -0.6416,-1.104492 -0.24859,-0.232023 -0.51321,-0.330633 -0.81152,-0.275391 -0.29832,0.05524 -0.63077,0.264024 -0.86279,0.65625 -0.23203,0.392227 -0.36346,0.966745 -0.46289,1.69043 -0.0994,0.723686 -0.1664,1.59672 -0.20508,2.563477 -0.0387,0.966757 -0.0497,2.026971 -0.0718,3.131836 -0.0221,1.104864 -0.0556,2.253895 -0.12744,3.380859 -0.0718,1.126964 -0.18223,2.233064 -0.33692,3.547852 -0.15468,1.314787 -0.35337,2.838968 -0.55224,4.313964 -0.19888,1.474996 -0.39786,2.89968 -0.62988,3.999025 -0.23203,1.099343 -0.49698,1.873732 -0.81739,2.553223 -0.32041,0.67949 -0.69569,1.264855 -1.10449,1.855957 -0.4088,0.591101 -0.85147,1.187678 -1.36523,1.762207 -0.51376,0.574529 -1.09837,1.126195 -1.60108,1.628906 -0.50271,0.502711 -0.92228,0.956136 -1.34765,1.287598 -0.42538,0.331461 -0.857288,0.541281 -1.249515,0.60205 -0.392227,0.06077 -0.745114,-0.02688 -1.026855,-0.131836 -0.281742,-0.104961 -0.491863,-0.227185 -0.679688,-0.398437 -0.187825,-0.171253 -0.353658,-0.392882 -0.436523,-0.663574 -0.08287,-0.270693 -0.08341,-0.590435 -0.03369,-1.026856 0.04972,-0.436421 0.149921,-0.989416 0.254883,-1.458984 0.104962,-0.469568 0.215379,-0.85494 0.336914,-1.208496 0.121536,-0.353557 0.254098,-0.67443 0.458496,-1.022461 0.204399,-0.348032 0.480649,-0.7234 0.773438,-1.154297 0.292789,-0.430897 0.601472,-0.916882 0.833496,-1.325684 0.232023,-0.408801 0.386994,-0.740276 0.511224,-1.108886 0.12424,-0.368611 0.21874,-0.775633 0.19922,-1.119141 -0.0195,-0.343508 -0.15332,-0.62402 -0.34863,-0.788086 -0.195311,-0.164066 -0.452144,-0.210448 -0.694334,-0.171387 -0.242189,0.03906 -0.469727,0.164064 -0.577148,0.175782 -0.107422,0.01172 -0.09522,-0.08984 -0.0835,-0.263672 0.01172,-0.173829 0.02393,-0.420409 0.03369,-0.684082 0.0098,-0.263674 0.01758,-0.54443 0.0059,-0.880371 -0.01172,-0.335942 -0.04395,-0.727535 -0.120118,-1.022461 -0.07617,-0.294927 -0.197264,-0.493651 -0.357422,-0.698731 -0.160157,-0.20508 -0.359374,-0.415525 -0.621093,-0.552246 -0.26172,-0.136721 -0.584953,-0.199705 -0.934571,-0.23291 -0.349617,-0.03321 -0.725095,-0.03662 -1.117675,0.0044 -0.39258,0.04102 -0.802242,0.126464 -1.1792,0.2417 -0.376957,0.115235 -0.721188,0.259276 -1.023925,0.440918 -0.302738,0.181641 -0.563962,0.400388 -0.757325,0.585937 -0.193362,0.185549 -0.319336,0.338867 -0.430664,0.492188 -0.111328,0.15332 -0.208007,0.307605 -0.27832,0.383789 -0.07031,0.07618 -0.114261,0.07421 -0.196289,0.07324 -0.08203,-9.67e-4 -0.202635,-9.77e-4 -0.593262,-0.0029 -0.390626,-0.002 -1.051263,-0.0068 -1.645019,-0.01465 -0.593757,-0.0078 -1.120111,-0.01904 -1.678711,-0.03076 -0.5586,-0.01172 -1.148432,-0.02295 -1.646485,-0.03076 -0.498052,-0.0078 -0.904291,-0.0127 -1.353515,-0.02051 -0.449224,-0.0078 -0.941402,-0.01904 -1.423828,-0.03076 -0.482427,-0.01172 -0.955562,-0.02344 -1.381348,-0.0293 -0.425786,-0.0059 -0.804198,-0.0063 -1.117676,-0.0044 -0.313477,0.002 -0.485127,0.0359 -0.60205,-0.0015 -0.116924,-0.03737 -0.06301,-0.145386 -0.01172,-0.549317 0.0513,-0.403928 0.130098,-1.129199 0.250488,-2.088866 0.12039,-0.959667 0.242925,-2.137735 0.480469,-3.66797 0.237544,-1.530234 0.462947,-3.408177 0.777833,-5.187012 0.314886,-1.778834 0.602143,-3.459142 0.845215,-4.967285 0.243071,-1.508143 0.441595,-2.844351 0.645996,-3.949218 0.204401,-1.104868 0.415104,-1.977283 0.641601,-2.8667 0.226497,-0.889416 0.469974,-1.795976 0.70752,-2.690918 0.237546,-0.894941 0.468384,-1.779108 0.728027,-2.613281 0.259643,-0.834173 0.54782,-1.618137 0.812988,-2.358398 0.265169,-0.740261 0.508444,-1.43625 0.873047,-2.220703 0.364604,-0.784454 0.849673,-1.658148 1.35791,-2.381836 0.508238,-0.723689 1.039144,-1.297579 1.652344,-1.800293 0.6132,-0.502715 1.309604,-0.934128 2.083008,-1.337403 0.773404,-0.403275 1.624045,-0.77847 2.48584,-1.054687 0.861795,-0.276217 1.734863,-0.453602 2.491699,-0.541992 0.756836,-0.08839 1.39732,-0.08734 2.071289,-0.0542 0.673969,0.03315 1.380399,0.09886 1.872069,0.231446 0.49166,0.132583 0.76838,0.331187 0.95068,0.502441 0.18231,0.171255 0.27062,0.315369 0.33692,0.563965 0.0663,0.248596 0.11023,0.601942 0.0439,1.010742 -0.0663,0.4088 -0.24326,0.87307 -0.48633,1.453125 -0.24307,0.580055 -0.55251,1.276659 -0.89502,1.917481 -0.3425,0.640821 -0.71712,1.226435 -1.092767,1.812011 -0.375653,0.585577 -0.752361,1.169974 -1.177734,1.766602 -0.425373,0.596628 -0.899219,1.204958 -1.258301,1.702148 -0.359082,0.497191 -0.602479,0.883777 -0.851074,1.253907 -0.248595,0.37013 -0.503741,0.723476 -0.597656,1.010742 -0.09392,0.287265 -0.02733,0.508431 0.07764,0.679687 0.104964,0.171257 0.248868,0.293389 0.536133,0.348633 0.287265,0.05524 0.717657,0.04361 0.933106,0.03809 0.215449,-0.0055 0.21651,-0.006 0.332519,-0.177246 0.116009,-0.171253 0.348392,-0.513297 0.585938,-0.861328 0.237545,-0.348032 0.479393,-0.701725 0.799804,-1.209961 0.320412,-0.508236 0.718092,-1.171239 1.182132,-1.933594 0.46404,-0.762354 0.99536,-1.62417 1.51465,-2.463867 0.51929,-0.839697 1.02766,-1.656394 1.40332,-2.496094 0.37566,-0.839699 0.61888,-1.70193 0.75146,-2.519531 0.13259,-0.817601 0.15409,-1.590432 -0.15527,-2.308594 -0.30936,-0.718162 -0.94972,-1.382032 -1.8999,-1.779785 -0.95018,-0.397753 -2.210376,-0.530024 -3.392583,-0.574219 z m -2.566406,42.133302 c 0.260783,0.005 0.441403,0.09277 0.550781,0.171386 0.125003,0.08985 0.155759,0.167963 0.218262,0.328125 0.0625,0.160162 0.156737,0.40283 0.227051,0.684083 0.07031,0.281251 0.117674,0.60156 0.1333,0.9375 0.01563,0.335938 0,0.686519 -0.02344,1.022461 -0.02344,0.335941 -0.05469,0.657226 -0.07031,0.817383 -0.01563,0.160156 -0.0166,0.159668 0.01465,0.300293 0.03125,0.140624 0.09375,0.421874 0.05859,0.726562 -0.03516,0.304688 -0.250831,0.549457 -0.410989,0.932273 -0.160157,0.382816 -0.347654,0.821285 -0.585937,1.250976 -0.238283,0.429692 -0.526365,0.850583 -0.881836,1.280274 -0.355471,0.429691 -0.778316,0.867671 -1.204102,1.281738 -0.425785,0.414067 -0.845997,0.805113 -1.280273,1.187988 -0.434277,0.382875 -0.847653,0.757322 -1.324219,1.108887 -0.476565,0.351565 -1.008295,0.680172 -1.53955,0.965332 -0.531256,0.28516 -1.062496,0.526853 -1.617188,0.698731 -0.554692,0.171877 -1.049453,0.355812 -1.483054,0.348 -0.433601,-0.0078 -0.722655,-0.124024 -0.925781,-0.307617 -0.203126,-0.183593 -0.320313,-0.434569 -0.386719,-0.735352 -0.06641,-0.300782 0.01643,-0.618218 0.102337,-1.024471 0.08594,-0.406252 0.274411,-0.86718 0.477539,-1.335937 0.203128,-0.468758 0.420896,-0.945308 0.729492,-1.464844 0.308596,-0.519536 0.708003,-1.083002 1.110352,-1.614258 0.402348,-0.531256 0.808589,-1.031245 1.242187,-1.535156 0.433598,-0.503911 0.893549,-1.010736 1.362305,-1.514648 0.468756,-0.503913 0.945795,-1.003901 1.340332,-1.417969 0.394537,-0.414068 0.706539,-0.742672 1.038574,-1.070801 0.332035,-0.328129 0.683591,-0.655759 1.007812,-0.933105 0.324222,-0.277347 0.621091,-0.503904 0.984375,-0.691407 0.363285,-0.187502 0.694014,-0.370059 1.018239,-0.393497 0.04053,-0.0029 0.07993,-0.0036 0.117188,-0.0029 z"
       sodipodi:nodetypes="cssssssssssssssssccsssssssssssssscsssssssssssssssssssssssssssssssssscssssssssssssssssssssssssssscssscssssssssssssssssssszssssssssssssscscsssssssscsssssssscccssssssssssscsssssscsscsssssccscssssssssssssssssssscssssccsssssssssssccssssccsszsssssssssssssssssscssssssssscssssssssscccsssssssssssszsssssscsssssssssccc" />
  </g>
</svg>
